<svg width="81" height="80" viewBox="0 0 81 80" fill="none" xmlns="http://www.w3.org/2000/svg">
<path d="M72.254 66.3844H71.0722C70.7308 66.3844 70.4419 66.6601 70.4419 67.0147C70.4419 67.3692 70.7176 67.645 71.0722 67.645H72.254C72.5954 67.645 72.8842 67.3692 72.8842 67.0147C72.8842 66.6601 72.5954 66.3844 72.254 66.3844Z" fill="#1E2020"/>
<path d="M13.1645 68.7213H9.61919C9.25153 68.7213 8.96265 69.0102 8.96265 69.3778C8.96265 69.7455 9.25153 70.0344 9.61919 70.0344H13.1645C13.5322 70.0344 13.8211 69.7455 13.8211 69.3778C13.8211 69.0102 13.5322 68.7213 13.1645 68.7213Z" fill="#1E2020"/>
<path d="M26.2955 65.1894L20.3866 64.0076C20.032 63.942 19.6906 64.1652 19.6119 64.5198C19.5331 64.8743 19.7694 65.2157 20.124 65.2945L26.0329 66.4763C26.0723 66.4894 26.1248 66.4894 26.1642 66.4894C26.4662 66.4894 26.7419 66.2793 26.8076 65.9642C26.8732 65.6096 26.65 65.2551 26.2955 65.1894Z" fill="#1E2020"/>
<path d="M20.1638 59.5297C20.3476 59.661 20.584 59.6872 20.781 59.6216V62.8255C20.781 63.1932 21.0698 63.4821 21.4375 63.4821C21.8052 63.4821 22.0941 63.1932 22.0941 62.8255V59.8579C22.2254 60.0286 22.4223 60.1206 22.6193 60.1206C22.7506 60.1206 22.8819 60.0812 23.0001 60.0024C23.289 59.7923 23.3677 59.3852 23.1445 59.0832L21.9627 57.4419C21.8446 57.2712 21.6476 57.1661 21.4375 57.1661C21.2274 57.1661 21.0304 57.258 20.8991 57.4287L20.0194 58.6105C19.8093 58.8994 19.8749 59.3196 20.1638 59.5297Z" fill="#1E2020"/>
<path d="M25.981 57.8224C25.8628 57.6517 25.6658 57.5467 25.4557 57.5467C25.2456 57.5467 25.0487 57.6386 24.9174 57.8093L23.9457 59.0961C23.7225 59.385 23.7881 59.7921 24.077 60.0153C24.274 60.1597 24.5103 60.186 24.7204 60.0941V63.3374C24.7204 63.7051 25.0093 63.994 25.377 63.994C25.7446 63.994 26.0335 63.7051 26.0335 63.3374V60.1597L26.1779 60.3698C26.3092 60.5537 26.5062 60.6456 26.7163 60.6456C26.8476 60.6456 26.9789 60.6062 27.0971 60.5274C27.386 60.3173 27.4648 59.9103 27.2547 59.6082L25.981 57.8224Z" fill="#1E2020"/>
<path d="M72.9365 9.29108C72.9365 9.27795 72.9365 9.26482 72.9496 9.25169C72.9496 9.22543 72.9627 9.19917 72.9627 9.17291C72.9627 9.17291 72.9627 9.17291 72.9627 9.15977C72.9627 9.14664 72.9627 9.13351 72.9627 9.12038C72.9627 9.09412 72.9627 9.08099 72.9627 9.05473V9.0416C72.9627 9.02847 72.9627 9.01533 72.9496 9.0022C72.9496 8.97594 72.9496 8.96281 72.9365 8.93655V8.92342C72.9365 8.91029 72.9234 8.91029 72.9234 8.89716C72.9102 8.87089 72.9102 8.85776 72.8971 8.8315C72.8971 8.8315 72.8971 8.81837 72.884 8.81837C72.884 8.80524 72.8708 8.80524 72.8708 8.79211C72.8577 8.77898 72.8446 8.75272 72.8314 8.73959C72.8314 8.72645 72.8183 8.72645 72.8183 8.71332C72.8183 8.70019 72.8052 8.70019 72.8052 8.68706C72.8052 8.67393 72.792 8.67393 72.792 8.6608C72.7789 8.64767 72.7789 8.64767 72.7658 8.63454C72.7527 8.62141 72.7395 8.60828 72.7264 8.59515C72.7133 8.58201 72.687 8.56888 72.6739 8.55575C72.6607 8.54262 72.6607 8.54262 72.6607 8.54262C72.6607 8.54262 72.6476 8.54262 72.6476 8.52949C72.6345 8.51636 72.6082 8.50323 72.582 8.50323C72.5688 8.50323 72.5688 8.4901 72.5557 8.4901H72.5426C72.5163 8.47697 72.5032 8.47697 72.4769 8.47697C72.4638 8.47697 72.4506 8.46384 72.4375 8.46384H72.4244C72.3981 8.46384 72.385 8.46384 72.3587 8.46384C72.3456 8.46384 72.3325 8.46384 72.3193 8.46384C72.3193 8.46384 72.3193 8.46384 72.3062 8.46384C72.2799 8.46384 72.2537 8.46384 72.2143 8.47697C72.2012 8.47697 72.2012 8.47697 72.188 8.47697L34.3054 15.7515C34.0165 15.804 33.8064 16.0404 33.7801 16.3292C33.7539 16.6181 33.9246 16.8939 34.1872 16.9989L44.193 20.9513L45.7949 26.5713L41.8294 25.9148C41.5668 25.8754 41.3042 25.9936 41.1597 26.2168L35.8811 34.66L28.5409 29.4207C28.3834 29.3157 28.1864 29.2763 28.0026 29.3157L11.6283 33.2681C11.392 33.3206 11.2213 33.5045 11.1556 33.7277C11.09 33.9509 11.1556 34.2004 11.3263 34.3711L17.2221 40.2669L12.8889 50.0231C12.8101 50.207 12.8101 50.4171 12.9152 50.6009C13.0071 50.7847 13.1778 50.9029 13.3879 50.9423L17.3665 51.6382V66.5812H10.8011C10.4334 66.5812 10.1445 66.8701 10.1445 67.2377C10.1445 67.6054 10.4334 67.8943 10.8011 67.8943H17.9443L45.0071 72.3982C45.0465 72.3982 45.0727 72.4113 45.1121 72.4113C45.1515 72.4113 45.1778 72.4113 45.2172 72.3982H45.2434H45.2697L63.3378 67.8811C63.4691 67.8549 63.5742 67.7761 63.6661 67.6842H63.7186H68.7083C69.076 67.6842 69.3649 67.3953 69.3649 67.0276C69.3649 66.66 69.076 66.3711 68.7083 66.3711H63.8368V49.6292L70.1659 47.5151C70.376 47.4495 70.5467 47.2656 70.5992 47.0424C70.6517 46.8192 70.5861 46.5828 70.4285 46.4253L64.0206 40.0174L69.3911 31.4298C69.5093 31.2459 69.5225 31.0096 69.4305 30.8126C69.3386 30.6157 69.1548 30.4712 68.9447 30.4318L51.5594 27.5299L53.9755 25.4815L58.8733 27.8056C58.9652 27.845 59.0571 27.8713 59.149 27.8713H59.2278L59.4642 27.845C59.648 27.8188 59.8187 27.7269 59.9238 27.5693L72.8446 9.48805C72.8577 9.47492 72.8708 9.44865 72.8708 9.43552C72.884 9.42239 72.884 9.40926 72.8971 9.39613C72.9102 9.36987 72.9234 9.34361 72.9365 9.30421V9.29108ZM66.0296 10.985L44.7313 19.7564L36.774 16.6181L66.0296 10.985ZM54.4876 17.1565L64.7165 12.9415L49.4584 22.1988C49.4453 22.2119 49.4322 22.2119 49.4322 22.225C49.4191 22.225 49.419 22.2381 49.4059 22.2381C49.3928 22.2513 49.3797 22.2513 49.3797 22.2644C49.3665 22.2775 49.3665 22.2775 49.3534 22.2907C49.3403 22.3038 49.3271 22.3169 49.314 22.3301L49.3009 22.3432C49.3009 22.3432 49.3009 22.3432 49.2877 22.3563C49.2877 22.3695 49.2746 22.3695 49.2746 22.3826C49.2615 22.3957 49.2483 22.422 49.2352 22.4351L49.2221 22.4482C49.2221 22.4482 49.2221 22.4614 49.209 22.4614V22.4745C49.1958 22.5008 49.1827 22.5402 49.1696 22.5664V22.5796L47.6464 27.4774L47.5282 27.845L47.3575 27.2542L45.5323 20.8594L54.4876 17.1565ZM54.9865 41.5012L45.0859 43.9698L35.6053 42.3941L21.2139 39.9911L36.0912 36.2751L59.9632 40.2537L54.9865 41.5012ZM28.0288 30.6682L34.5286 35.3165L31.6267 36.0387L18.1938 39.4002L13.0727 34.2792L28.0288 30.6682ZM18.3907 40.8578L44.0879 45.1384L39.1113 54.0806L36.1831 53.5685L18.115 50.4302L14.4252 49.7868L18.3907 40.8578ZM18.6534 51.8483L35.9467 54.8553L39.3345 55.4462C39.3739 55.4462 39.4002 55.4593 39.4396 55.4593H39.5315H39.5446C39.5709 55.4593 39.5971 55.4462 39.6234 55.4462C39.6365 55.4462 39.6365 55.4331 39.6497 55.4331C39.6759 55.4199 39.6891 55.4199 39.7153 55.4068C39.7284 55.4068 39.7416 55.3937 39.7416 55.3937C39.7547 55.3805 39.781 55.3805 39.7941 55.3674C39.8072 55.3674 39.8204 55.3543 39.8204 55.3411C39.8335 55.328 39.8466 55.3149 39.8729 55.3017L39.8991 55.2755C39.9123 55.2624 39.9254 55.2492 39.9385 55.223C39.9517 55.2098 39.9517 55.2098 39.9648 55.1967C39.9779 55.1704 40.0042 55.1442 40.0173 55.1179L44.4424 47.1606V70.9538L18.6534 66.6731V51.8483ZM62.5237 50.0625V66.7125L45.7687 70.9013V46.2283L52.5573 53.017C52.5836 53.0432 52.6099 53.0695 52.6493 53.0958C52.6624 53.0958 52.6624 53.1089 52.6755 53.1089L52.7543 53.1483C52.7543 53.1483 52.7674 53.1483 52.7674 53.1614C52.8068 53.1745 52.8331 53.1877 52.8725 53.1877H52.8987C52.925 53.1877 52.9644 53.2008 52.9907 53.2008H53.0038H53.0169H53.0826H53.1088C53.1351 53.2008 53.1745 53.1877 53.2007 53.1745L62.5237 50.0625ZM53.2007 51.7958L46.3989 44.994L54.0937 43.0769L62.9833 40.8578L68.7477 46.6222L53.2007 51.7958ZM62.852 39.4002L37.1417 35.1196L42.0526 27.2935L46.202 27.9763L46.8585 30.3005C46.8585 30.3005 46.8585 30.3136 46.8717 30.3136C46.8717 30.3268 46.8848 30.353 46.8848 30.3662C46.8848 30.3793 46.8979 30.3924 46.911 30.4187C46.9242 30.4318 46.9242 30.445 46.9373 30.4581C46.9504 30.4712 46.9504 30.4844 46.9636 30.4975C46.9767 30.5106 46.9898 30.5237 46.9898 30.5369C47.003 30.55 47.0161 30.5631 47.0292 30.5763C47.0424 30.5894 47.0555 30.6025 47.0686 30.6157C47.0818 30.6288 47.0949 30.6419 47.108 30.6551L47.1211 30.6682C47.1343 30.6682 47.1343 30.6813 47.1474 30.6813C47.1605 30.6944 47.1737 30.6944 47.1868 30.7076C47.1999 30.7207 47.2262 30.7207 47.2393 30.7338C47.2525 30.7338 47.2656 30.747 47.2787 30.747C47.2918 30.747 47.3181 30.7601 47.3312 30.7601C47.3444 30.7601 47.3575 30.7601 47.3706 30.7732C47.3969 30.7732 47.4232 30.7732 47.4363 30.7864H47.4625H47.4757C47.5151 30.7864 47.5545 30.7864 47.5807 30.7732C47.5939 30.7732 47.5939 30.7732 47.607 30.7601C47.6332 30.7601 47.6595 30.747 47.6858 30.7338C47.6989 30.7338 47.712 30.7207 47.7252 30.7207C47.7514 30.7076 47.7646 30.7076 47.7908 30.6944C47.804 30.6813 47.8171 30.6813 47.8302 30.6682C47.8433 30.6551 47.8696 30.6419 47.8827 30.6288L47.8959 30.6157L50.22 28.646L67.7235 31.5742L62.852 39.4002ZM48.8019 28.1471L48.8938 27.8582L50.115 23.9189L50.1938 23.6825L52.6755 24.8643L48.8019 28.1471ZM59.0965 26.4663L51.1655 22.6977L69.9164 11.3264L59.0965 26.4663Z" fill="#1E2020"/>
<path d="M26.0453 14.0836C26.1635 14.0836 26.2554 14.0704 26.3342 14.0311C26.7413 13.8472 27.1221 13.7028 27.5029 13.5715C27.8837 13.4402 28.0806 13.02 27.9493 12.6523C27.8837 12.4685 27.7524 12.324 27.5817 12.2453C27.4109 12.1665 27.214 12.1533 27.0302 12.2059C26.6231 12.3503 26.2029 12.521 25.7565 12.718C25.4019 12.8755 25.2312 13.3089 25.4019 13.6765C25.507 13.926 25.7696 14.0836 26.0453 14.0836Z" fill="#F84756"/>
<path d="M29.8019 12.9811C29.8413 12.9811 29.8806 12.9811 29.9069 12.9679C30.314 12.9023 30.7342 12.8629 31.1281 12.8498C31.5351 12.8366 31.8371 12.5084 31.824 12.1013C31.8109 11.6942 31.4826 11.3922 31.0756 11.4054C30.5635 11.4316 30.117 11.4842 29.7099 11.5367C29.5261 11.5629 29.3554 11.668 29.2372 11.8256C29.1191 11.9831 29.0797 12.167 29.1059 12.3639C29.1322 12.7053 29.4473 12.9811 29.8019 12.9811Z" fill="#F84756"/>
<path d="M33.6099 12.9944C34.2008 13.0994 34.5553 13.2176 34.5553 13.2176C34.621 13.2439 34.7129 13.257 34.7917 13.257C35.1068 13.257 35.3694 13.0469 35.4745 12.7449C35.5401 12.5611 35.527 12.3641 35.4351 12.1934C35.3563 12.0227 35.1987 11.8914 35.0149 11.8257C35.0149 11.8257 35.0018 11.8257 34.9755 11.8126C34.8442 11.7732 34.4634 11.655 33.8594 11.5631C33.4654 11.4975 33.0978 11.7469 33.019 12.154C32.9533 12.5479 33.2028 12.9156 33.6099 12.9944Z" fill="#F84756"/>
<path d="M22.7374 16.1979C22.9212 16.1979 23.1051 16.1191 23.2233 16.001C23.5121 15.7252 23.7879 15.502 24.0636 15.3182L24.1424 15.2656C24.4838 15.0293 24.5626 14.5828 24.3262 14.2546C24.2212 14.097 24.0636 13.9919 23.8667 13.9525C23.6697 13.9132 23.4859 13.9525 23.3152 14.0707L23.2233 14.1364C22.8293 14.4121 22.4879 14.6879 22.199 14.9636C21.9102 15.2394 21.9102 15.699 22.1859 15.9878C22.3566 16.1191 22.5404 16.1979 22.7374 16.1979Z" fill="#F84756"/>
<path d="M21.5554 19.743C21.5948 19.743 21.6211 19.743 21.6605 19.7299H21.7392H21.7524C22.1332 19.6117 22.3564 19.2177 22.2513 18.837C22.1857 18.5875 22.1463 18.3642 22.1463 18.1541C22.1463 18.0491 22.1594 17.9441 22.1726 17.839C22.2251 17.4319 21.9625 17.0774 21.5685 17.0118C21.1615 16.9592 20.807 17.2219 20.7413 17.6158C20.715 17.7865 20.7019 17.9703 20.7019 18.1541C20.7019 18.4824 20.7544 18.8501 20.8463 19.2177C20.9514 19.5329 21.2271 19.743 21.5554 19.743Z" fill="#F84756"/>
<path d="M22.8952 25.508C23.0002 25.7968 23.276 25.9807 23.578 25.9807C23.6699 25.9807 23.7618 25.9675 23.8537 25.9282C24.0376 25.8625 24.182 25.7312 24.2608 25.5605C24.3396 25.3767 24.3527 25.1797 24.2739 24.9959C24.1295 24.6151 23.9982 24.208 23.88 23.8009C23.7618 23.407 23.381 23.1969 22.9871 23.302C22.6063 23.4202 22.3831 23.8141 22.4881 24.1949C22.58 24.5888 22.7113 25.0221 22.8952 25.508Z" fill="#F84756"/>
<path d="M28.1594 18.8505C28.3301 18.9949 28.422 19.2313 28.4483 19.5333C28.4745 19.901 28.7897 20.203 29.1705 20.203C29.1967 20.203 29.223 20.203 29.2493 20.1898C29.4331 20.1767 29.6038 20.0848 29.722 19.9403C29.8402 19.7959 29.9058 19.6121 29.8927 19.4151C29.8402 18.7454 29.5644 18.1677 29.1048 17.7737C28.9604 17.6424 28.7766 17.5899 28.5796 17.603C28.3826 17.6162 28.2119 17.7081 28.0806 17.8525C27.9493 17.997 27.8968 18.1808 27.9099 18.3778C27.923 18.5485 28.015 18.7192 28.1594 18.8505Z" fill="#F84756"/>
<path d="M23.7356 20.3867C23.88 20.019 23.6962 19.612 23.3154 19.4675C22.9478 19.3231 22.5407 19.5069 22.3963 19.8877C22.2256 20.3211 22.1336 20.8332 22.1074 21.3978C22.0942 21.5948 22.173 21.7786 22.3043 21.923C22.4357 22.0675 22.6064 22.1462 22.8033 22.1462H22.8296C23.0659 22.1462 23.276 22.0412 23.3942 21.8705C23.3548 21.9887 23.3548 22.1069 23.3811 22.2382C23.4205 22.422 23.5386 22.5927 23.6962 22.6977C24.0114 22.9078 24.3134 23.0785 24.6285 23.2099C24.7336 23.2624 24.8386 23.2755 24.9305 23.2755C25.1931 23.2755 25.4558 23.1179 25.6002 22.8553C25.7709 22.5008 25.6265 22.0806 25.2588 21.8968C24.983 21.7523 24.7204 21.6079 24.4841 21.4634C24.3265 21.3584 24.1295 21.319 23.9457 21.3715C23.775 21.4109 23.6306 21.5028 23.5255 21.6473C23.5386 21.5948 23.5518 21.5291 23.5518 21.4634C23.5518 21.0301 23.6174 20.6756 23.7356 20.3867Z" fill="#F84756"/>
<path d="M24.1941 18.049C24.1153 18.2328 24.1153 18.4298 24.1941 18.6005C24.3123 18.8763 24.5749 19.047 24.8638 19.047C24.9294 19.047 24.9951 19.0338 25.0476 19.0207C25.0739 19.0207 25.1001 19.0076 25.1264 19.0076H25.1395C25.284 18.9419 25.4284 18.8894 25.5597 18.85L25.6648 18.8237C25.8749 18.7712 26.0849 18.7187 26.2688 18.6793C26.6627 18.5874 26.8991 18.2197 26.8334 17.8258C26.7415 17.4319 26.3738 17.1955 25.9799 17.2612C25.7567 17.3005 25.5072 17.3662 25.2446 17.4319L25.1527 17.4581C24.9688 17.5106 24.7719 17.5763 24.5749 17.6551C24.4042 17.7339 24.2729 17.8652 24.1941 18.049Z" fill="#F84756"/>
<path d="M28.8166 21.3317C28.659 21.2135 28.4752 21.1741 28.2782 21.2004C28.0813 21.2266 27.9106 21.3317 27.8055 21.4892C27.5954 21.7912 27.3459 22.0145 27.0964 22.1458C26.9257 22.2377 26.7944 22.3821 26.7419 22.5791C26.6894 22.7629 26.7025 22.9599 26.7944 23.1306C26.9257 23.367 27.1621 23.5245 27.4247 23.5245C27.556 23.5245 27.6611 23.4851 27.7661 23.4195C28.2126 23.1831 28.6328 22.8023 28.9742 22.3427C29.0923 22.1852 29.1317 22.0013 29.1055 21.8044C29.0661 21.6074 28.9742 21.4367 28.8166 21.3317Z" fill="#F84756"/>
<path d="M25.3108 29.5255C25.429 29.5255 25.5472 29.4861 25.6916 29.4205C25.8623 29.3154 25.9805 29.1447 26.0199 28.9609C26.0593 28.777 26.033 28.5801 25.928 28.4225C25.928 28.4225 25.6653 27.9892 25.3108 27.3195C25.232 27.1488 25.0744 27.0175 24.8906 26.965C24.7068 26.9125 24.5098 26.9256 24.3391 27.0175C24.1684 27.0963 24.0371 27.2539 23.9846 27.4377C23.9321 27.6215 23.9452 27.8185 24.0371 27.9892C24.3654 28.6195 24.6543 29.1053 24.7068 29.1841C24.825 29.3942 25.0613 29.5255 25.3108 29.5255Z" fill="#F84756"/>
</svg>
