<svg xmlns="http://www.w3.org/2000/svg" width="81" height="80" fill="none" viewBox="0 0 81 80"><path fill="#1E2020" d="M70.375 69.25H68.75V38.375C68.75 38.025 68.475 37.75 68.125 37.75H60.25C59.9125 37.75 59.625 38.025 59.625 38.375L59.3625 69.25H57.5V47.375C57.5 47.025 57.225 46.75 56.875 46.75H48.8C48.45 46.75 48.175 47.025 48.175 47.375V69.25H46.25C46.25 68.9 45.975 68.625 45.625 68.625C45.275 68.625 45 68.9 45 69.25H41.85H40.275H37.125C37.125 68.9 36.85 68.625 36.5 68.625C36.15 68.625 35.875 68.9 35.875 69.25H34.075V41.75C34.075 41.4 33.8 41.125 33.45 41.125H25.3125C24.9625 41.125 24.6875 41.4 24.6875 41.75V69.25H22.8875V51.875C22.8875 51.525 22.6125 51.25 22.2625 51.25H14.125C13.775 51.25 13.5 51.525 13.5 51.875V69.875C13.5 70.225 13.775 70.5 14.125 70.5H22.2625H25.3125H33.45H36.5H37.125H40.275H41.85H45H45.625H48.8H56.875H59.9875H68.125H70.375C70.725 70.5 71 70.225 71 69.875C71 69.525 70.725 69.25 70.375 69.25ZM14.75 69.25V52.5H21.6375V69.25H14.75ZM25.9375 69.25V42.375H32.825V69.25H25.9375ZM49.425 69.25V48H56.25V69.25H49.425ZM60.6125 69.25L60.8625 39H67.4875V69.25H60.6125Z"/><path fill="#F84756" d="M46.25 37.25C46.25 36.9 45.975 36.625 45.625 36.625H45C44.65 36.625 44.375 36.9 44.375 37.25C44.375 37.6 44.65 37.875 45 37.875C45 38.225 45.275 38.5 45.625 38.5C45.975 38.5 46.25 38.225 46.25 37.875V37.25Z"/><path fill="#F84756" d="M41.8509 37.875C42.1884 37.875 42.4759 37.6 42.4759 37.25C42.4759 36.9 42.2009 36.625 41.8509 36.625H40.2759C39.9259 36.625 39.6509 36.9 39.6509 37.25C39.6509 37.6 39.9259 37.875 40.2759 37.875H41.8509Z"/><path fill="#F84756" d="M36.5 38.5C36.8375 38.5 37.125 38.225 37.125 37.875C37.475 37.875 37.75 37.6 37.75 37.25C37.75 36.9 37.475 36.625 37.125 36.625H36.5C36.15 36.625 35.875 36.9 35.875 37.25V37.875C35.875 38.225 36.15 38.5 36.5 38.5Z"/><path fill="#F84756" d="M35.875 66.8375C35.875 67.1875 36.15 67.4625 36.5 67.4625C36.8375 67.4625 37.125 67.1875 37.125 66.8375V65.625C37.125 65.275 36.85 65 36.5 65C36.15 65 35.875 65.275 35.875 65.625V66.8375Z"/><path fill="#F84756" d="M35.875 55.9752C35.875 56.3252 36.15 56.6002 36.5 56.6002C36.8375 56.6002 37.125 56.3252 37.125 55.9752V54.7627C37.125 54.4127 36.85 54.1377 36.5 54.1377C36.15 54.1377 35.875 54.4127 35.875 54.7627V55.9752Z"/><path fill="#F84756" d="M35.875 63.2125C35.875 63.5625 36.15 63.8375 36.5 63.8375C36.8375 63.8375 37.125 63.5625 37.125 63.2125V62C37.125 61.65 36.85 61.375 36.5 61.375C36.15 61.375 35.875 61.65 35.875 62V63.2125Z"/><path fill="#F84756" d="M35.875 59.6002C35.875 59.9502 36.15 60.2252 36.5 60.2252C36.8375 60.2252 37.125 59.9377 37.125 59.6002V58.3877C37.125 58.0377 36.85 57.7627 36.5 57.7627C36.15 57.7627 35.875 58.0377 35.875 58.3877V59.6002Z"/><path fill="#F84756" d="M35.875 52.3502C35.875 52.7002 36.15 52.9752 36.5 52.9752C36.8375 52.9752 37.125 52.7002 37.125 52.3502V51.1377C37.125 50.7877 36.85 50.5127 36.5 50.5127C36.15 50.5127 35.875 50.7877 35.875 51.1377V52.3502Z"/><path fill="#F84756" d="M35.875 45.1124C35.875 45.4624 36.15 45.7374 36.5 45.7374C36.8375 45.7374 37.125 45.4624 37.125 45.1124V43.8999C37.125 43.5499 36.85 43.2749 36.5 43.2749C36.15 43.2749 35.875 43.5499 35.875 43.8999V45.1124Z"/><path fill="#F84756" d="M35.875 41.5001C35.875 41.8501 36.15 42.1251 36.5 42.1251C36.8375 42.1251 37.125 41.8376 37.125 41.5001V40.2876C37.125 39.9376 36.85 39.6626 36.5 39.6626C36.15 39.6626 35.875 39.9376 35.875 40.2876V41.5001Z"/><path fill="#F84756" d="M35.875 48.7374C35.875 49.0874 36.15 49.3624 36.5 49.3624C36.8375 49.3624 37.125 49.0749 37.125 48.7374V47.5249C37.125 47.1749 36.85 46.8999 36.5 46.8999C36.15 46.8999 35.875 47.1749 35.875 47.5249V48.7374Z"/><path fill="#F84756" d="M46.25 40.2876C46.25 39.9376 45.975 39.6626 45.625 39.6626C45.275 39.6626 45 39.9376 45 40.2876V41.5001C45 41.8501 45.275 42.1251 45.625 42.1251C45.975 42.1251 46.25 41.8376 46.25 41.5001V40.2876Z"/><path fill="#F84756" d="M46.25 47.5249C46.25 47.1749 45.975 46.8999 45.625 46.8999C45.275 46.8999 45 47.1749 45 47.5249V48.7374C45 49.0874 45.275 49.3624 45.625 49.3624C45.975 49.3624 46.25 49.0749 46.25 48.7374V47.5249Z"/><path fill="#F84756" d="M46.25 51.1377C46.25 50.7877 45.975 50.5127 45.625 50.5127C45.275 50.5127 45 50.7877 45 51.1377V52.3502C45 52.7002 45.275 52.9752 45.625 52.9752C45.975 52.9752 46.25 52.7002 46.25 52.3502V51.1377Z"/><path fill="#F84756" d="M46.25 43.8999C46.25 43.5499 45.975 43.2749 45.625 43.2749C45.275 43.2749 45 43.5499 45 43.8999V45.1124C45 45.4624 45.275 45.7374 45.625 45.7374C45.975 45.7374 46.25 45.4624 46.25 45.1124V43.8999Z"/><path fill="#F84756" d="M46.25 62C46.25 61.65 45.975 61.375 45.625 61.375C45.275 61.375 45 61.65 45 62V63.2125C45 63.5625 45.275 63.8375 45.625 63.8375C45.975 63.8375 46.25 63.5625 46.25 63.2125V62Z"/><path fill="#F84756" d="M45.625 65C45.275 65 45 65.275 45 65.625V66.8375C45 67.1875 45.275 67.4625 45.625 67.4625C45.975 67.4625 46.25 67.1875 46.25 66.8375V65.625C46.25 65.275 45.975 65 45.625 65Z"/><path fill="#F84756" d="M46.25 58.3877C46.25 58.0377 45.975 57.7627 45.625 57.7627C45.275 57.7627 45 58.0377 45 58.3877V59.6002C45 59.9502 45.275 60.2252 45.625 60.2252C45.975 60.2252 46.25 59.9377 46.25 59.6002V58.3877Z"/><path fill="#F84756" d="M46.25 54.7627C46.25 54.4127 45.975 54.1377 45.625 54.1377C45.275 54.1377 45 54.4127 45 54.7627V55.9752C45 56.3252 45.275 56.6002 45.625 56.6002C45.975 56.6002 46.25 56.3252 46.25 55.9752V54.7627Z"/><path fill="#1E2020" d="M70.9875 16.875C70.9875 16.8625 70.975 16.8375 70.975 16.825C70.975 16.8 70.9625 16.7875 70.95 16.7625C70.9375 16.7375 70.925 16.725 70.9125 16.7C70.9 16.6875 70.9 16.6625 70.8875 16.65C70.8375 16.5875 70.7875 16.525 70.7125 16.475C70.7 16.4625 70.675 16.4625 70.6625 16.45C70.6375 16.4375 70.625 16.425 70.6 16.4125C70.575 16.4 70.5625 16.4 70.5375 16.3875C70.525 16.3875 70.5 16.375 70.4875 16.375C70.45 16.3625 70.4125 16.3625 70.375 16.3625H67C66.65 16.3625 66.375 16.6375 66.375 16.9875C66.375 17.3375 66.65 17.6125 67 17.6125H68.8625L59.5375 26.9375C59.0875 26.65 58.55 26.4875 58 26.4875C56.4125 26.4875 55.125 27.775 55.125 29.3625C55.125 30.2375 55.525 31.0625 56.1875 31.5875L53.0625 37.8125C52.8375 37.75 52.6125 37.725 52.375 37.725C52.1125 37.725 51.85 37.7625 51.6 37.825L46.375 28.175C47 27.6375 47.375 26.8375 47.375 26C47.375 24.5125 46.225 23.275 44.775 23.1375L36.125 14.4875V10.25C36.125 9.9 35.85 9.625 35.5 9.625H10.75C10.4 9.625 10.125 9.9 10.125 10.25V22.625C10.125 22.975 10.4 23.25 10.75 23.25H35.5C35.85 23.25 36.125 22.975 36.125 22.625V16.2625L43.2625 23.4C42.35 23.8375 41.7 24.7375 41.625 25.8L32.55 27.2C32.125 26.125 31.075 25.375 29.875 25.375C28.2875 25.375 27 26.6625 27 28.25C27 28.8 27.1625 29.3375 27.45 29.7875L10.3125 46.9375C10.0625 47.1875 10.0625 47.575 10.3125 47.825C10.4375 47.95 10.6 48.0125 10.75 48.0125C10.9 48.0125 11.075 47.95 11.1875 47.825L28.325 30.6875C28.775 30.975 29.3125 31.1375 29.8625 31.1375C31.3875 31.1375 32.625 29.95 32.725 28.4625L41.8 27.0625C42.25 28.125 43.3 28.875 44.5 28.875C44.7625 28.875 45.025 28.8375 45.275 28.775L50.5 38.45C49.875 38.9875 49.5 39.7875 49.5 40.625C49.5 42.2125 50.7875 43.5 52.375 43.5C53.9625 43.5 55.25 42.2125 55.25 40.625C55.25 39.7375 54.85 38.9375 54.1875 38.4L57.3125 32.175C57.5375 32.2375 57.7625 32.2625 58 32.2625C59.5875 32.2625 60.875 30.975 60.875 29.3875C60.875 28.825 60.7125 28.3 60.425 27.85L69.75 18.5125V20.375C69.75 20.725 70.025 21 70.375 21C70.725 21 71 20.725 71 20.375V17C71 16.9625 71 16.9125 70.9875 16.875ZM11.375 22V10.875H34.875V14.75V22H11.375ZM29.875 29.875C29.4375 29.875 29.0375 29.7125 28.725 29.4C28.4125 29.0875 28.25 28.6875 28.25 28.25C28.25 27.35 28.975 26.625 29.875 26.625C30.675 26.625 31.3625 27.2125 31.475 28C31.4875 28.1 31.5 28.1875 31.5 28.25C31.5 29.15 30.775 29.875 29.875 29.875ZM42.9 26.25C42.8875 26.1625 42.875 26.075 42.875 26C42.875 25.1 43.6 24.375 44.5 24.375C45.4 24.375 46.125 25.1 46.125 26C46.125 26.6125 45.8 27.15 45.2625 27.4375C45.05 27.55 44.7875 27.625 44.5 27.625C43.7 27.625 43.0125 27.0375 42.9 26.25ZM52.375 42.25C51.475 42.25 50.75 41.525 50.75 40.625C50.75 40.0125 51.075 39.475 51.6125 39.1875C51.825 39.075 52.0875 39 52.375 39C52.625 39 52.8625 39.0625 53.1 39.175C53.6625 39.45 54 40.0125 54 40.625C54 41.525 53.275 42.25 52.375 42.25ZM58 31C57.75 31 57.5125 30.9375 57.275 30.825C56.725 30.55 56.375 29.9875 56.375 29.375C56.375 28.475 57.1 27.75 58 27.75C58.4375 27.75 58.8375 27.9125 59.1375 28.225C59.4375 28.525 59.6125 28.925 59.6125 29.3625C59.625 30.275 58.9 31 58 31Z"/><path fill="#1E2020" d="M32.125 12.4375H14.125C13.775 12.4375 13.5 12.7125 13.5 13.0625C13.5 13.4125 13.775 13.6875 14.125 13.6875H32.125C32.475 13.6875 32.75 13.4125 32.75 13.0625C32.75 12.7125 32.475 12.4375 32.125 12.4375Z"/><path fill="#1E2020" d="M32.125 15.8125H14.125C13.775 15.8125 13.5 16.0875 13.5 16.4375C13.5 16.7875 13.775 17.0625 14.125 17.0625H32.125C32.475 17.0625 32.75 16.7875 32.75 16.4375C32.75 16.0875 32.475 15.8125 32.125 15.8125Z"/><path stroke="#1E2020" d="M14.125 19.6875H24.25C24.2909 19.6875 24.3204 19.7025 24.3402 19.7223C24.36 19.7421 24.375 19.7716 24.375 19.8125C24.375 19.8534 24.36 19.8829 24.3402 19.9027C24.3204 19.9225 24.2909 19.9375 24.25 19.9375H14.125C14.0841 19.9375 14.0546 19.9225 14.0348 19.9027C14.015 19.8829 14 19.8534 14 19.8125C14 19.7716 14.015 19.7421 14.0348 19.7223C14.0546 19.7025 14.0841 19.6875 14.125 19.6875Z"/><path fill="#1E2020" d="M11.875 69.25H10.75C10.4 69.25 10.125 69.525 10.125 69.875C10.125 70.225 10.4 70.5 10.75 70.5H11.875C12.225 70.5 12.5 70.225 12.5 69.875C12.5 69.525 12.225 69.25 11.875 69.25Z"/></svg>