<svg width="81" height="80" viewBox="0 0 81 80" fill="none" xmlns="http://www.w3.org/2000/svg">
<path d="M40.5616 60.5877C41.9491 60.5877 43.0866 59.4502 43.0866 58.0627C43.0866 56.6752 41.9491 55.5377 40.5616 55.5377C39.1741 55.5377 38.0366 56.6752 38.0366 58.0627C38.0366 59.4502 39.1741 60.5877 40.5616 60.5877ZM40.5616 56.7877C41.2616 56.7877 41.8366 57.3627 41.8366 58.0627C41.8366 58.7627 41.2616 59.3377 40.5616 59.3377C39.8616 59.3377 39.2866 58.7627 39.2866 58.0627C39.2866 57.3627 39.8616 56.7877 40.5616 56.7877Z" fill="#1E2020"/>
<path d="M68.875 19.75H58.475V17.5V17.4875C58.475 17.45 58.475 17.4125 58.4625 17.375C58.45 17.3375 58.45 17.3 58.425 17.275C58.425 17.2625 58.4125 17.25 58.4125 17.25C58.4 17.225 58.3875 17.2 58.375 17.175C58.375 17.1625 58.3625 17.1625 58.3625 17.15C58.3375 17.125 58.3125 17.0875 58.2875 17.0625L50.9625 9.7375C50.9375 9.7125 50.9125 9.6875 50.875 9.6625C50.8625 9.6625 50.8625 9.65 50.85 9.65C50.825 9.6375 50.8 9.625 50.775 9.6125C50.7625 9.6125 50.75 9.6 50.75 9.6C50.7125 9.5875 50.6875 9.575 50.65 9.575C50.6125 9.5625 50.575 9.5625 50.5375 9.5625H50.525H23.55C23.2 9.5625 22.925 9.8375 22.925 10.1875V19.75H12.25C11.075 19.75 10.125 20.7 10.125 21.875V54.125V60.5C10.125 61.675 11.075 62.625 12.25 62.625H32.4875L30.6875 69H27.625C27.275 69 27 69.275 27 69.625C27 69.975 27.275 70.25 27.625 70.25H53.5C53.85 70.25 54.125 69.975 54.125 69.625C54.125 69.275 53.85 69 53.5 69H50.825L49.0375 62.625H68.875C70.05 62.625 71 61.675 71 60.5V54.125V21.875C71 20.7 70.05 19.75 68.875 19.75ZM56.3375 16.875H51.15V11.6875L56.3375 16.875ZM24.175 10.8H49.9V17.5C49.9 17.85 50.175 18.125 50.525 18.125H57.225V20.375V47.875H24.175V20.375V10.8ZM11.375 21.875C11.375 21.3875 11.7625 21 12.25 21H22.925V29.625C22.6625 29.6875 22.4125 29.7625 22.1625 29.8375C21.8375 29.9375 21.6375 30.275 21.7375 30.6125C21.8125 30.8875 22.0625 31.0625 22.3375 31.0625C22.4 31.0625 22.4625 31.0625 22.5125 31.0375C22.65 31 22.7875 30.9625 22.925 30.925V47.875H19.1625C18.8125 47.875 18.5375 48.15 18.5375 48.5C18.5375 48.85 18.8125 49.125 19.1625 49.125H23.55H57.85H61.8375C62.1875 49.125 62.4625 48.85 62.4625 48.5C62.4625 48.15 62.1875 47.875 61.8375 47.875H58.475V43.6375C58.7375 43.5625 58.9875 43.4875 59.2375 43.425C59.575 43.325 59.7625 42.975 59.6625 42.65C59.5625 42.3125 59.2125 42.125 58.8875 42.225C58.75 42.2625 58.6125 42.3 58.475 42.3375V31.05C58.875 31.1625 59.2625 31.275 59.6375 31.4C59.7 31.4125 59.7625 31.425 59.825 31.425C60.0875 31.425 60.3375 31.25 60.425 31C60.5375 30.675 60.35 30.3125 60.025 30.2125C59.6375 30.0875 59.225 29.9625 58.8125 29.85C58.7 29.8125 58.5875 29.8125 58.475 29.85V21H68.875C69.3625 21 69.75 21.3875 69.75 21.875V53.5H11.375V21.875ZM49.5125 68.9375H32L33.7875 62.625H47.7375L49.5125 68.9375ZM69.75 60.5C69.75 60.9875 69.3625 61.375 68.875 61.375H48.2125H33.3125H12.25C11.7625 61.375 11.375 60.9875 11.375 60.5V54.75H69.75V60.5Z" fill="#1E2020"/>
<path d="M28.9258 27.375L28.3633 30.65C28.3258 30.8875 28.4258 31.125 28.6133 31.2625C28.7258 31.3375 28.8508 31.3875 28.9758 31.3875C29.0758 31.3875 29.1758 31.3625 29.2633 31.3125L32.2008 29.7625L35.1508 31.3125C35.3633 31.425 35.6133 31.4 35.8133 31.2625C36.0008 31.125 36.1008 30.8875 36.0633 30.65L35.5008 27.375L37.8758 25.05C38.0508 24.8875 38.1133 24.6375 38.0383 24.4125C37.9633 24.1875 37.7633 24.025 37.5383 23.9875L34.2508 23.5125L32.7758 20.5375C32.6758 20.325 32.4508 20.1875 32.2133 20.1875C31.9758 20.1875 31.7633 20.325 31.6508 20.5375L30.1883 23.5L26.9008 23.975C26.6633 24.0125 26.4758 24.175 26.4008 24.4C26.3258 24.625 26.3883 24.875 26.5633 25.0375L28.9258 27.375ZM30.6883 24.7C30.8883 24.675 31.0633 24.5375 31.1633 24.3625L32.2133 22.225L33.2758 24.3625C33.3633 24.55 33.5383 24.675 33.7508 24.7L36.1133 25.0375L34.4008 26.7C34.2508 26.8375 34.1883 27.05 34.2258 27.25L34.6258 29.625L32.5008 28.5125C32.4133 28.4625 32.3133 28.4375 32.2133 28.4375C32.1133 28.4375 32.0133 28.4625 31.9258 28.5125L29.8258 29.625L30.2258 27.275C30.2633 27.075 30.1883 26.8625 30.0508 26.725L28.3383 25.0625L30.6883 24.7Z" fill="#1E2020"/>
<path d="M28.9258 41.3374L28.3758 44.6249C28.3383 44.8624 28.4383 45.0999 28.6258 45.2374C28.8133 45.3749 29.0758 45.3999 29.2883 45.2874L32.2258 43.7374L35.1758 45.2874C35.2633 45.3374 35.3633 45.3624 35.4633 45.3624C35.5883 45.3624 35.7258 45.3249 35.8258 45.2374C36.0133 45.0999 36.1133 44.8624 36.0758 44.6249L35.5133 41.3499L37.8883 39.0249C38.0633 38.8624 38.1258 38.6124 38.0508 38.3874C37.9758 38.1624 37.7758 37.9999 37.5508 37.9624L34.2633 37.4874L32.7758 34.4999C32.6758 34.2874 32.4508 34.1499 32.2133 34.1499C31.9758 34.1499 31.7633 34.2874 31.6508 34.4999L30.1883 37.4749L26.9008 37.9499C26.6633 37.9874 26.4758 38.1499 26.4008 38.3749C26.3258 38.5999 26.3883 38.8499 26.5633 39.0124L28.9258 41.3374ZM30.6883 38.6624C30.8883 38.6374 31.0633 38.4999 31.1633 38.3249L32.2133 36.1874L33.2758 38.3249C33.3633 38.5124 33.5383 38.6374 33.7508 38.6624L36.1133 38.9999L34.4008 40.6624C34.2508 40.7999 34.1883 41.0124 34.2258 41.2124L34.6258 43.5624L32.5008 42.4499C32.4133 42.3999 32.3133 42.3749 32.2133 42.3749C32.1133 42.3749 32.0133 42.3999 31.9258 42.4499L29.8258 43.5624L30.2258 41.2124C30.2633 41.0124 30.1883 40.7999 30.0508 40.6624L28.3383 38.9999L30.6883 38.6624Z" fill="#1E2020"/>
<path d="M40.7007 24.1377H54.1882C54.5382 24.1377 54.8132 23.8627 54.8132 23.5127C54.8132 23.1627 54.5382 22.8877 54.1882 22.8877H40.7007C40.3507 22.8877 40.0757 23.1627 40.0757 23.5127C40.0757 23.8627 40.3507 24.1377 40.7007 24.1377Z" fill="#1E2020"/>
<path d="M40.7007 31.3877H54.1882C54.5382 31.3877 54.8132 31.1127 54.8132 30.7627C54.8132 30.4127 54.5382 30.1377 54.1882 30.1377H40.7007C40.3507 30.1377 40.0757 30.4127 40.0757 30.7627C40.0757 31.1127 40.3507 31.3877 40.7007 31.3877Z" fill="#1E2020"/>
<path d="M40.7007 27.5625H54.1882C54.5382 27.5625 54.8132 27.2875 54.8132 26.9375C54.8132 26.5875 54.5382 26.3125 54.1882 26.3125H40.7007C40.3507 26.3125 40.0757 26.5875 40.0757 26.9375C40.0757 27.2875 40.3507 27.5625 40.7007 27.5625Z" fill="#1E2020"/>
<path d="M40.7007 37.9502H54.1882C54.5382 37.9502 54.8132 37.6752 54.8132 37.3252C54.8132 36.9752 54.5382 36.7002 54.1882 36.7002H40.7007C40.3507 36.7002 40.0757 36.9752 40.0757 37.3252C40.0757 37.6752 40.3507 37.9502 40.7007 37.9502Z" fill="#1E2020"/>
<path d="M40.7007 45.1875H54.1882C54.5382 45.1875 54.8132 44.9125 54.8132 44.5625C54.8132 44.2125 54.5382 43.9375 54.1882 43.9375H40.7007C40.3507 43.9375 40.0757 44.2125 40.0757 44.5625C40.0757 44.9125 40.3507 45.1875 40.7007 45.1875Z" fill="#1E2020"/>
<path d="M40.7007 41.3623H54.1882C54.5382 41.3623 54.8132 41.0873 54.8132 40.7373C54.8132 40.3873 54.5382 40.1123 54.1882 40.1123H40.7007C40.3507 40.1123 40.0757 40.3873 40.0757 40.7373C40.0757 41.0873 40.3507 41.3623 40.7007 41.3623Z" fill="#1E2020"/>
<path d="M63.5877 31.6252C63.2127 31.4377 62.8252 31.2627 62.4127 31.0877C62.1002 30.9627 61.7377 31.1127 61.6002 31.4252C61.4752 31.7377 61.6252 32.1002 61.9377 32.2377C62.3252 32.4002 62.6877 32.5627 63.0377 32.7377C63.1252 32.7752 63.2252 32.8002 63.3127 32.8002C63.5377 32.8002 63.7627 32.6627 63.8752 32.4627C64.0252 32.1502 63.9002 31.7752 63.5877 31.6252Z" fill="#F84756"/>
<path d="M60.0016 30.2199C59.5997 30.1004 59.1877 29.9953 58.7511 29.8946C58.4216 29.8258 58.0907 30.0365 58.0095 30.3681C57.9407 30.6976 58.1514 31.0285 58.483 31.1096C58.8928 31.2024 59.278 31.2995 59.6531 31.411C59.7458 31.4328 59.8486 31.44 59.9348 31.4248C60.1564 31.3858 60.3541 31.2113 60.4301 30.9948C60.5236 30.661 60.3354 30.3134 60.0016 30.2199Z" fill="#F84756"/>
<path d="M62.3241 40.9751C61.9741 41.1376 61.5866 41.2876 61.1991 41.4376C60.8741 41.5626 60.7116 41.9251 60.8366 42.2501C60.9366 42.5001 61.1741 42.6501 61.4241 42.6501C61.4991 42.6501 61.5741 42.6376 61.6491 42.6001C62.0616 42.4376 62.4616 42.2751 62.8366 42.1126C63.1491 41.9751 63.2866 41.6001 63.1491 41.2876C63.0116 40.9751 62.6366 40.8376 62.3241 40.9751Z" fill="#F84756"/>
<path d="M59.3155 42.0917C58.9504 42.2168 58.5494 42.3254 58.1483 42.4341C57.812 42.5245 57.6125 42.868 57.7029 43.2043C57.7762 43.4634 57.9967 43.6374 58.2453 43.6635C58.3199 43.6713 58.3958 43.6667 58.4743 43.6373C58.9016 43.5188 59.3164 43.399 59.7063 43.2766C60.0315 43.1725 60.2074 42.8139 60.1033 42.4888C59.9992 42.1636 59.6407 41.9877 59.3155 42.0917Z" fill="#F84756"/>
<path d="M65.3992 39.1624C65.1242 39.3874 64.7992 39.6249 64.4492 39.8499C64.1617 40.0374 64.0742 40.4249 64.2617 40.7124C64.3742 40.8999 64.5867 40.9999 64.7867 40.9999C64.8992 40.9999 65.0242 40.9749 65.1242 40.8999C65.5242 40.6374 65.8867 40.3749 66.1992 40.1124C66.4617 39.8999 66.4992 39.4999 66.2742 39.2374C66.0617 38.9749 65.6617 38.9374 65.3992 39.1624Z" fill="#F84756"/>
<path d="M65.0748 33.9498C65.4123 34.1873 65.6998 34.4498 65.9373 34.6998C66.0623 34.8373 66.2248 34.8998 66.3873 34.8998C66.5373 34.8998 66.6998 34.8498 66.8123 34.7248C67.0623 34.4873 67.0748 34.0873 66.8373 33.8373C66.5498 33.5373 66.2123 33.2373 65.8248 32.9498C65.5498 32.7498 65.1623 32.7998 64.9498 33.0748C64.7498 33.3498 64.7998 33.7373 65.0748 33.9498Z" fill="#F84756"/>
<path d="M67.4368 35.85C67.0868 35.875 66.8368 36.175 66.8618 36.525C66.8743 36.5875 66.8743 36.6375 66.8743 36.7C66.8743 36.95 66.8243 37.2125 66.7243 37.475C66.5993 37.7875 66.7618 38.15 67.0868 38.275C67.1618 38.3 67.2368 38.3125 67.3118 38.3125C67.5618 38.3125 67.7993 38.1625 67.8993 37.925C68.0493 37.525 68.1243 37.1125 68.1243 36.7C68.1243 36.6125 68.1243 36.5125 68.1118 36.425C68.0868 36.075 67.7743 35.825 67.4368 35.85Z" fill="#F84756"/>
<path d="M14.137 36.5499C14.162 36.2374 14.262 35.9249 14.4245 35.6124C14.587 35.2999 14.462 34.9249 14.162 34.7624C13.8495 34.5999 13.4745 34.7249 13.312 35.0249C13.062 35.4999 12.9245 35.9749 12.887 36.4624C12.862 36.7999 13.112 37.0999 13.462 37.1249H13.512C13.837 37.1249 14.112 36.8749 14.137 36.5499Z" fill="#F84756"/>
<path d="M17.113 32.45C16.9255 32.1625 16.5505 32.0625 16.2505 32.2375C15.8505 32.475 15.4755 32.725 15.1505 32.975C14.8755 33.1875 14.813 33.575 15.0255 33.85C15.1505 34.0125 15.338 34.1 15.5255 34.1C15.663 34.1 15.788 34.0625 15.9255 33.975C16.213 33.75 16.538 33.525 16.9005 33.3125C17.188 33.125 17.288 32.75 17.113 32.45Z" fill="#F84756"/>
<path d="M20.1868 42.2627C20.0868 42.5877 20.2618 42.9377 20.5868 43.0502C20.9743 43.1752 21.3868 43.3002 21.7993 43.4252C21.8618 43.4377 21.9118 43.4502 21.9743 43.4502C22.2493 43.4502 22.4868 43.2752 22.5743 43.0002C22.6743 42.6752 22.4743 42.3252 22.1493 42.2252C21.7493 42.1127 21.3493 41.9877 20.9743 41.8627C20.6493 41.7627 20.2993 41.9377 20.1868 42.2627Z" fill="#F84756"/>
<path d="M18.8003 32.2873C18.8878 32.2873 18.9628 32.2748 19.0378 32.2498C19.4003 32.0998 19.7753 31.9498 20.1753 31.7998C20.5003 31.6873 20.6628 31.3248 20.5503 30.9998C20.4378 30.6748 20.0753 30.5123 19.7503 30.6248C19.3378 30.7748 18.9378 30.9248 18.5628 31.0873C18.2378 31.2123 18.0878 31.5873 18.2253 31.8998C18.3253 32.1498 18.5503 32.2873 18.8003 32.2873Z" fill="#F84756"/>
<path d="M21.8003 31.2874C21.8878 31.2874 21.9628 31.2749 22.0378 31.2499C22.4003 31.0999 22.7753 30.9499 23.1753 30.7999C23.5003 30.6874 23.6628 30.3249 23.5503 29.9999C23.4378 29.6749 23.0753 29.5124 22.7503 29.6249C22.3378 29.7749 21.9378 29.9249 21.5628 30.0874C21.2378 30.2124 21.0878 30.5874 21.2253 30.8999C21.3253 31.1499 21.5503 31.2874 21.8003 31.2874Z" fill="#F84756"/>
<path d="M19.0248 41.825C19.1623 41.5125 19.0123 41.1375 18.6998 41C18.3248 40.825 17.9498 40.65 17.6123 40.475C17.3123 40.3125 16.9373 40.4375 16.7748 40.7375C16.6123 41.0375 16.7373 41.4125 17.0373 41.575C17.3998 41.775 17.7873 41.9625 18.1998 42.1375C18.2748 42.175 18.3623 42.1875 18.4498 42.1875C18.6873 42.1875 18.9123 42.0375 19.0248 41.825Z" fill="#F84756"/>
<path d="M14.8133 38.3876C14.6008 38.1251 14.2008 38.0876 13.9383 38.3001C13.6758 38.5126 13.6383 38.9126 13.8508 39.1751C14.1258 39.5001 14.4508 39.8251 14.8258 40.1376C14.9383 40.2376 15.0883 40.2876 15.2258 40.2876C15.4008 40.2876 15.5883 40.2126 15.7008 40.0501C15.9133 39.7876 15.8758 39.4001 15.6133 39.1751C15.3008 38.9251 15.0258 38.6501 14.8133 38.3876Z" fill="#F84756"/>
</svg>
