<svg xmlns="http://www.w3.org/2000/svg" width="201" height="44" fill="none" viewBox="0 0 201 44"><path fill="#FFFFFE" fill-rule="evenodd" d="M42.6022 21.685C42.6022 33.1077 33.3408 42.3695 21.9172 42.3695C10.493 42.3695 1.23267 33.1077 1.23267 21.685C1.23267 10.2608 10.493 1 21.9172 1C33.3408 1 42.6022 10.2608 42.6022 21.685Z" clip-rule="evenodd"/><path fill-rule="evenodd" stroke="#D61634" stroke-width="1.493" d="M42.6022 21.685C42.6022 33.1077 33.3408 42.3695 21.9172 42.3695C10.493 42.3695 1.23267 33.1077 1.23267 21.685C1.23267 10.2608 10.493 1 21.9172 1C33.3408 1 42.6022 10.2608 42.6022 21.685Z" clip-rule="evenodd"/><path fill="#D61634" fill-rule="evenodd" d="M39.261 21.684C39.261 31.266 31.4938 39.0332 21.9132 39.0332C12.3316 39.0332 4.56445 31.266 4.56445 21.684C4.56445 12.1034 12.3316 4.33618 21.9132 4.33618C31.4938 4.33618 39.261 12.1034 39.261 21.684Z" clip-rule="evenodd"/><path fill="#FFFFFE" fill-rule="evenodd" d="M25.8739 21.1373C24.6847 22.0022 22.379 22.0383 20.3254 22.3981C18.3079 22.7584 16.578 23.4795 16.578 25.7491C16.578 27.7667 18.3079 28.4878 20.1811 28.4878C24.2167 28.4878 25.8739 25.9651 25.8739 24.2718V21.1373ZM30.8466 30.6857C30.3059 31.01 29.6213 31.1899 28.6487 31.1899C27.0631 31.1899 26.0543 30.3249 26.0543 28.3079C24.361 30.2888 22.0909 31.1899 19.4971 31.1899C16.1099 31.1899 13.3352 29.677 13.3352 25.9651C13.3352 21.7496 16.4703 20.8491 19.6409 20.2367C23.0275 19.5873 25.9105 19.8038 25.9105 17.4981C25.9105 14.8316 23.7121 14.3996 21.7667 14.3996C19.1723 14.3996 17.2625 15.1924 17.1187 17.93H14.0558C14.2362 13.3182 17.8033 11.697 21.9471 11.697C25.2976 11.697 28.9368 12.4537 28.9368 16.8135V26.3976C28.9368 27.8393 28.9368 28.4878 29.9095 28.4878C30.1621 28.4878 30.4502 28.4512 30.8466 28.3079V30.6857Z" clip-rule="evenodd"/><path fill="#30343B" fill-rule="evenodd" d="M56.7564 23.2395C55.9831 23.8019 54.4835 23.8253 53.1479 24.0596C51.8357 24.2939 50.7109 24.7626 50.7109 26.2388C50.7109 27.551 51.8357 28.0196 53.0541 28.0196C55.6785 28.0196 56.7564 26.3794 56.7564 25.2774V23.2395ZM59.99 29.449C59.6385 29.6599 59.1933 29.7763 58.5606 29.7763C57.5296 29.7763 56.8735 29.2139 56.8735 27.9025C55.7722 29.1912 54.296 29.7763 52.6089 29.7763C50.4063 29.7763 48.6021 28.7929 48.6021 26.3794C48.6021 23.6379 50.6406 23.0521 52.7026 22.6537C54.9052 22.2319 56.7798 22.3725 56.7798 20.8729C56.7798 19.1389 55.3505 18.8577 54.0851 18.8577C52.398 18.8577 51.1561 19.3732 51.0624 21.1541H49.0707C49.1879 18.1548 51.5076 17.1003 54.2023 17.1003C56.3815 17.1003 58.7481 17.5924 58.7481 20.4277V26.6606C58.7481 27.5978 58.7481 28.0196 59.3807 28.0196C59.5448 28.0196 59.7322 27.9962 59.99 27.9025V29.449Z" clip-rule="evenodd"/><path fill="#30343B" fill-rule="evenodd" d="M64.0195 17.3815H66.433V19.1389H64.0195V26.6605C64.0195 27.5744 64.2773 27.7384 65.5192 27.7384H66.433V29.4958H64.91C62.8479 29.4958 62.0278 29.074 62.0278 26.8473V19.1389H59.9658V17.3815H62.0278V13.7495H64.0195V17.3815Z" clip-rule="evenodd"/><path fill="#30343B" fill-rule="evenodd" d="M68.1672 29.4958H70.159V12.7654H68.1672V29.4958Z" clip-rule="evenodd"/><path fill="#30343B" fill-rule="evenodd" d="M80.1634 23.2395C79.3908 23.8019 77.8905 23.8253 76.5549 24.0596C75.2427 24.2939 74.1179 24.7626 74.1179 26.2388C74.1179 27.551 75.2427 28.0196 76.4618 28.0196C79.0855 28.0196 80.1634 26.3794 80.1634 25.2774V23.2395ZM83.397 29.449C83.0455 29.6599 82.601 29.7763 81.9676 29.7763C80.9366 29.7763 80.2805 29.2139 80.2805 27.9025C79.1792 29.1912 77.7037 29.7763 76.0166 29.7763C73.814 29.7763 72.0098 28.7929 72.0098 26.3794C72.0098 23.6379 74.0476 23.0521 76.1097 22.6537C78.3123 22.2319 80.1868 22.3725 80.1868 20.8729C80.1868 19.1389 78.7575 18.8577 77.4921 18.8577C75.805 18.8577 74.5631 19.3732 74.4694 21.1541H72.4777C72.5949 18.1548 74.9146 17.1003 77.6093 17.1003C79.7892 17.1003 82.1558 17.5924 82.1558 20.4277V26.6606C82.1558 27.5978 82.1558 28.0196 82.7878 28.0196C82.9518 28.0196 83.1392 27.9962 83.397 27.9025V29.449Z" clip-rule="evenodd"/><path fill="#30343B" fill-rule="evenodd" d="M84.6624 17.3815H86.5369V19.3029H86.5838C87.4273 17.8033 88.7864 17.1003 90.5203 17.1003C93.7071 17.1003 94.6912 18.928 94.6912 21.529V29.4958H92.6995V21.2947C92.6995 19.8184 91.7622 18.8577 90.2392 18.8577C87.8257 18.8577 86.6541 20.4745 86.6541 22.6537V29.4958H84.6624V17.3815Z" clip-rule="evenodd"/><path fill="#30343B" fill-rule="evenodd" d="M99.8694 17.3815H102.283V19.1389H99.8694V26.6605C99.8694 27.5744 100.127 27.7384 101.369 27.7384H102.283V29.4958H100.76C98.6978 29.4958 97.8777 29.074 97.8777 26.8473V19.1389H95.8157V17.3815H97.8777V13.7495H99.8694V17.3815Z" clip-rule="evenodd"/><path fill="#30343B" fill-rule="evenodd" d="M112.311 22.2788C112.218 20.3808 110.788 18.8577 108.82 18.8577C106.735 18.8577 105.493 20.4277 105.353 22.2788H112.311ZM114.233 25.653C113.695 28.3242 111.773 29.7763 109.054 29.7763C105.189 29.7763 103.36 27.1058 103.243 23.4035C103.243 19.7716 105.634 17.1003 108.937 17.1003C113.225 17.1003 114.537 21.1072 114.42 24.0362H105.353C105.282 26.1451 106.477 28.0196 109.125 28.0196C110.766 28.0196 111.914 27.2229 112.265 25.653H114.233Z" clip-rule="evenodd"/><path fill="#30343B" fill-rule="evenodd" d="M124.121 21.2712C123.816 19.7482 122.762 18.8577 121.122 18.8577C118.24 18.8577 117.349 21.1306 117.349 23.591C117.349 25.817 118.357 28.0196 120.887 28.0196C122.809 28.0196 123.957 26.8949 124.215 25.0672H126.253C125.808 28.0196 123.957 29.7763 120.911 29.7763C117.209 29.7763 115.24 27.1995 115.24 23.591C115.24 19.959 117.115 17.1003 120.958 17.1003C123.699 17.1003 125.902 18.3891 126.183 21.2712H124.121Z" clip-rule="evenodd"/><path fill="#30343B" fill-rule="evenodd" d="M127.893 12.7654H129.884V19.1623H129.932C130.588 17.7095 132.299 17.1003 133.751 17.1003C136.938 17.1003 137.922 18.928 137.922 21.5289V29.4958H135.93V21.2946C135.93 19.8184 134.993 18.8577 133.47 18.8577C131.057 18.8577 129.884 20.4745 129.884 22.6537V29.4958H127.893V12.7654Z" clip-rule="evenodd"/><path fill="#30343B" fill-rule="evenodd" d="M147.024 23.4504C147.024 26.0279 148.43 28.6054 151.265 28.6054C154.101 28.6054 155.506 26.0279 155.506 23.4504C155.506 20.8729 154.101 18.2954 151.265 18.2954C148.43 18.2954 147.024 20.8729 147.024 23.4504ZM156.982 23.4504C156.982 26.9183 154.968 29.8473 151.265 29.8473C147.563 29.8473 145.548 26.9183 145.548 23.4504C145.548 19.9825 147.563 17.0535 151.265 17.0535C154.968 17.0535 156.982 19.9825 156.982 23.4504Z" clip-rule="evenodd"/><path fill="#30343B" fill-rule="evenodd" d="M158.576 17.4049H160.052V19.4904H160.099C160.638 18.0376 162.254 17.0535 163.965 17.0535C167.363 17.0535 168.394 18.8343 168.394 21.7164V29.4958H166.918V21.9507C166.918 19.8653 166.238 18.2954 163.848 18.2954C161.505 18.2954 160.099 20.0762 160.052 22.4428V29.4958H158.576V17.4049Z" clip-rule="evenodd"/><path fill="#30343B" fill-rule="evenodd" d="M170.62 29.4958H172.097V12.7654H170.62V29.4958Z" clip-rule="evenodd"/><path fill="#30343B" fill-rule="evenodd" d="M174.369 29.4958H175.845V17.4049H174.369V29.4958ZM174.369 15.132H175.845V12.7654H174.369V15.132Z" clip-rule="evenodd"/><mask id="mask0_1509_246" style="mask-type:alpha" width="23" height="13" x="178" y="17" maskUnits="userSpaceOnUse"><path fill="#fff" d="M200.267 17.0535V29.8473H178.071V17.0535H200.267Z"/></mask><g mask="url(#mask0_1509_246)"><path fill="#30343B" fill-rule="evenodd" d="M178.071 17.4049H179.548V19.4904H179.594C180.133 18.0376 181.75 17.0535 183.461 17.0535C186.858 17.0535 187.889 18.8343 187.889 21.7164V29.4958H186.413V21.9507C186.413 19.8653 185.734 18.2954 183.343 18.2954C181 18.2954 179.594 20.0762 179.548 22.4428V29.4958H178.071V17.4049Z" clip-rule="evenodd"/><path fill="#30343B" fill-rule="evenodd" d="M198.785 22.6068C198.714 20.3808 197.332 18.2954 194.941 18.2954C192.528 18.2954 191.193 20.4042 190.958 22.6068H198.785ZM190.958 23.8487C190.981 26.0045 192.106 28.6054 194.941 28.6054C197.098 28.6054 198.269 27.3401 198.738 25.5124H200.213C199.581 28.2539 197.987 29.8473 194.941 29.8473C191.098 29.8473 189.482 26.8949 189.482 23.4504C189.482 20.2636 191.098 17.0535 194.941 17.0535C198.832 17.0535 200.378 20.4511 200.261 23.8487H190.958Z" clip-rule="evenodd"/></g><path stroke="#30343B" stroke-width=".858" d="M142.432 7.72046V35.6492"/></svg>