<svg xmlns="http://www.w3.org/2000/svg" width="252" height="63" viewBox="0 0 252 63"><g fill="none" fill-rule="evenodd"><path fill="#6795CE" d="M41.77 55.825H13.924l-.267-.47L.265 32.066 0 31.607l.265-.462L13.658 7.856l.267-.468H41.77l.27.468L55.43 31.145l.265.462-.265.459-13.392 23.289-.269.47M14.983 9.245L2.124 31.608l12.86 22.36h25.729l12.858-22.36L40.713 9.246h-25.73"/><path fill="#0054A6" d="M6.013 31.607L16.929 12.62h.002l10.916 18.987-10.916 18.986h-.002L6.013 31.607"/><path fill="#6795CE" d="M38.766 50.593H16.931l10.916-18.986h21.836L38.766 50.593"/><path fill="#1A1918" d="M22.388 41.1l5.459-9.493-5.459 9.493"/><path fill="#AEC3E5" d="M27.847 31.607L16.93 12.62h21.835l10.917 18.986H27.847"/><path fill="#4B4B4A" d="M49.683 31.607H27.847v-.001h21.836v.001"/><path fill="#FFF" d="M23.66 39.245l-4.39-7.637 4.39-7.639H36.3l-2.157-3.713H21.541l-6.52 11.352 6.52 11.35h12.602l2.156-3.713H23.66"/><path fill="#6795CE" d="M69.85 63h1.763V.213H69.85z"/><path fill="#0054A6" d="M113.837 21.165l-3.987 4.873c-2.08-2.393-5.07-3.959-7.886-3.959-5.2 0-9.23 4.046-9.23 9.353 0 5.31 4.03 9.398 9.23 9.398 2.73 0 5.72-1.392 7.886-3.568l4.03 4.395c-3.206 3.306-7.843 5.439-12.263 5.439-9.057 0-15.904-6.744-15.904-15.576 0-8.79 6.977-15.402 16.164-15.402 4.377 0 8.97 1.958 11.96 5.047M116.222 46.79h6.847V16.336h-6.847zM153.965 46.791V26.255l-8.059 17.447h-4.464l-8.06-17.447v20.536h-6.196V16.335h7.67l8.84 18.621 8.796-18.62h7.627V46.79h-6.154M191.062 21.165l-3.987 4.873c-2.08-2.393-5.07-3.959-7.887-3.959-5.2 0-9.23 4.046-9.23 9.353 0 5.31 4.03 9.398 9.23 9.398 2.73 0 5.72-1.392 7.887-3.568l4.03 4.395c-3.207 3.306-7.844 5.439-12.264 5.439-9.056 0-15.903-6.744-15.903-15.576 0-8.79 6.977-15.402 16.164-15.402 4.376 0 8.97 1.958 11.96 5.047"/><path fill="#0054A6" d="M197.693 31.564c0 5.35 4.29 9.528 9.36 9.528 5.07 0 9.187-4.178 9.187-9.528 0-5.352-4.117-9.442-9.187-9.442-5.113 0-9.36 4.09-9.36 9.442zm25.567 0c0 8.788-7.02 15.532-16.294 15.532-9.273 0-16.294-6.7-16.294-15.532 0-8.876 7.021-15.446 16.294-15.446 9.274 0 16.294 6.613 16.294 15.446zM238.342 32.346c3.77 0 5.937-1.74 5.937-5.22 0-3.394-2.168-5.091-5.937-5.091h-6.327v10.31h6.327zm.65 5.744h-6.977v8.701h-6.847V16.335h13.174c7.93 0 12.436 3.83 12.436 10.573 0 4.699-1.993 8.092-5.676 9.833l6.456 10.05h-7.756l-4.81-8.701z"/></g></svg>