<svg width="139" height="40" viewBox="0 0 139 40" fill="none" xmlns="http://www.w3.org/2000/svg">
<path fill-rule="evenodd" clip-rule="evenodd" d="M12.5428 25.0392C17.6191 25.0392 20.5745 22.1805 22.2087 19.2514L17.9667 17.1691C16.9932 19.0748 14.9071 20.5924 12.5428 20.5924C8.30111 20.5924 5.24103 17.3104 5.24103 12.8635C5.24103 8.41669 8.30111 5.13446 12.5428 5.13446C14.9071 5.13446 16.9932 6.65222 17.9667 8.55794L22.2087 6.44034C20.5745 3.47594 17.6191 0.687866 12.5428 0.687866C5.55436 0.687866 0.165039 5.5933 0.165039 12.8635C0.165039 20.0985 5.55436 25.0392 12.5428 25.0392Z" fill="#333C40"/>
<path fill-rule="evenodd" clip-rule="evenodd" d="M17.6809 10.5563C12.4899 10.5563 9.46791 13.3281 7.79686 16.2752L12.1345 18.3803C13.1301 16.4859 15.2632 14.9771 17.6809 14.9771C22.0185 14.9771 25.1472 18.2401 25.1472 22.6609C25.1472 27.0819 22.0185 30.3446 17.6809 30.3446C15.2632 30.3446 13.1301 28.8361 12.1345 26.9414L7.72949 29.0545V39.6879H12.5395V33.6266C13.9548 34.3301 15.6514 34.7657 17.6809 34.7657C24.8271 34.7657 30.3379 29.8537 30.3379 22.6609C30.3379 15.4332 24.8271 10.5563 17.6809 10.5563Z" fill="#66A243"/>
<path fill-rule="evenodd" clip-rule="evenodd" d="M125.726 17.6723V19.4766C125.188 20.1996 124.225 20.6307 123.142 20.6307C121.764 20.6307 120.802 19.7849 120.802 18.5742C120.802 17.3752 121.764 16.538 123.142 16.538C124.22 16.538 125.183 16.9615 125.726 17.6723ZM123.548 11.4407C121.938 11.4407 120.636 11.9809 119.565 13.0924L119.513 13.147L120.332 14.3637L120.412 14.2758C121.241 13.3692 122.174 12.9469 123.346 12.9469C124.792 12.9469 125.726 13.7146 125.726 14.902V16.4303C124.945 15.6498 123.887 15.2546 122.574 15.2546C120.888 15.2546 119.072 16.2935 119.072 18.5742C119.072 20.7434 120.877 21.9137 122.574 21.9137C123.847 21.9137 124.932 21.4942 125.726 20.6975V21.6703H127.436V14.8414C127.436 12.6802 126.019 11.4407 123.548 11.4407Z" fill="#66A243"/>
<path fill-rule="evenodd" clip-rule="evenodd" d="M110.03 14.6052V9.64043H113.486C115.043 9.64043 116.09 10.638 116.09 12.1227C116.09 13.6077 115.043 14.6052 113.486 14.6052H110.03ZM113.689 7.95135H108.158V21.6703H110.03V16.2945H113.689C116.24 16.2945 118.023 14.5789 118.023 12.1227C118.023 9.66673 116.24 7.95135 113.689 7.95135Z" fill="#66A243"/>
<path fill-rule="evenodd" clip-rule="evenodd" d="M137.056 11.6839L133.854 19.5615L130.671 11.6839H128.804L132.94 21.6768L132.306 23.122C131.96 23.9362 131.524 24.0998 130.932 24.0998C130.709 24.0998 130.351 24.0419 130.14 23.9457L130.027 23.8949L129.771 25.4763L129.85 25.5006C130.134 25.5877 130.66 25.6468 130.974 25.6466C132.409 25.6243 133.379 24.9548 133.94 23.6006L138.85 11.8141L138.904 11.6839H137.056Z" fill="#66A243"/>
<path fill-rule="evenodd" clip-rule="evenodd" d="M63.3778 11.4407C61.987 11.4407 60.7011 12.1718 59.9623 12.9509V11.6841H58.2529V21.6705H59.9623V14.4466C60.5171 13.7163 61.5928 12.9877 62.7694 12.9877C64.2338 12.9877 64.8868 13.6595 64.8868 15.166V21.6705H66.5758V14.6991C66.5758 12.5369 65.4999 11.4407 63.3778 11.4407Z" fill="#333C42"/>
<path fill-rule="evenodd" clip-rule="evenodd" d="M54.1755 16.6669C54.1755 18.4489 53.1893 20.3669 51.0236 20.3669C48.8579 20.3669 47.8716 18.4489 47.8716 16.6669C47.8716 14.895 48.8579 12.9877 51.0236 12.9877C53.1893 12.9877 54.1755 14.895 54.1755 16.6669ZM51.0236 11.4407C48.1596 11.4407 46.0811 13.6387 46.0811 16.6669C46.0811 19.7072 48.1596 21.9135 51.0236 21.9135C53.8875 21.9135 55.9661 19.7072 55.9661 16.6669C55.9661 13.6387 53.8875 11.4407 51.0236 11.4407Z" fill="#333C42"/>
<path fill-rule="evenodd" clip-rule="evenodd" d="M43.1557 18.2982C42.3615 19.4686 40.9267 20.2247 39.5006 20.2247C36.5339 20.2247 34.3808 17.9523 34.3808 14.8211C34.3808 11.6899 36.5339 9.41703 39.5006 9.41703C40.9628 9.41703 42.3633 10.1551 43.1552 11.3433L43.2036 11.4157L44.7692 10.5308L44.7101 10.4462C43.4701 8.66792 41.6685 7.72821 39.5006 7.72821C35.4141 7.72821 32.4482 10.7111 32.4482 14.8211C32.4482 18.9309 35.4141 21.9135 39.5006 21.9135C41.6495 21.9135 43.4087 20.9931 44.7294 19.1771L44.7925 19.0904L43.2036 18.2278L43.1557 18.2982Z" fill="#333C42"/>
<path fill-rule="evenodd" clip-rule="evenodd" d="M96.5662 12.9877C97.6118 12.9877 98.3807 13.3749 98.9856 14.2067L99.0469 14.2909L100.204 13.2502L100.15 13.1813C99.235 11.9937 98.0704 11.4407 96.485 11.4407C93.5978 11.4407 91.502 13.6387 91.502 16.6669C91.502 19.7072 93.5978 21.9135 96.485 21.9135C98.0704 21.9135 99.235 21.3605 100.15 20.1731L100.203 20.1049L99.0484 19.043L98.9861 19.1267C98.3652 19.9612 97.5735 20.3669 96.5662 20.3669C94.6269 20.3669 93.2724 18.8454 93.2724 16.6669C93.2724 14.4664 94.5958 12.9877 96.5662 12.9877Z" fill="#333C42"/>
<path fill-rule="evenodd" clip-rule="evenodd" d="M106.114 19.859L106.011 19.9717C105.845 20.154 105.493 20.3669 105.046 20.3669C104.495 20.3669 104.166 19.9316 104.166 19.2028V13.2109H106.154V11.6841H104.166V9.00598H102.437V11.6841H100.813V13.2109H102.437V19.5276C102.437 21.0664 103.248 21.9135 104.722 21.9135C105.515 21.9135 106.127 21.6996 106.592 21.259L106.637 21.2157L106.114 19.859Z" fill="#333C42"/>
<path fill-rule="evenodd" clip-rule="evenodd" d="M74.5763 11.4407C73.1852 11.4407 71.8994 12.1718 71.1605 12.9509V11.6841H69.4512V21.6705H71.1605V14.4466C71.7153 13.7163 72.791 12.9877 73.9676 12.9877C75.4321 12.9877 76.085 13.6595 76.085 15.166V21.6705H77.7738V14.6991C77.7738 12.5369 76.6981 11.4407 74.5763 11.4407Z" fill="#333C42"/>
<path fill-rule="evenodd" clip-rule="evenodd" d="M81.8783 15.9441C81.9873 14.6786 82.8824 12.8863 84.9827 12.8863C87.1918 12.8863 88.0536 14.6798 88.1117 15.9441H81.8783ZM85.0033 11.4407C82.1972 11.4407 80.0811 13.6875 80.0811 16.6669C80.0811 19.7563 82.1801 21.9135 85.1856 21.9135C86.7429 21.9135 88.1127 21.3785 89.1466 20.3654L89.2047 20.3086L88.3606 19.1595L88.2832 19.2389C87.5214 20.02 86.4366 20.4684 85.3076 20.4684C83.1431 20.4684 82.0449 18.8772 81.8994 17.2683H89.8035V16.7889C89.8035 13.5898 87.8745 11.4407 85.0033 11.4407Z" fill="#333C42"/>
<path fill-rule="evenodd" clip-rule="evenodd" d="M34.425 33.2481V30.9585H36.0242C37.1738 30.9585 37.8295 30.1648 37.8295 29.2223C37.8295 28.2798 37.1823 27.4859 36.0242 27.4859H33.709V33.2481H34.425ZM35.9378 30.3203H34.425V28.1243H35.9378C36.621 28.1243 37.0874 28.5739 37.0874 29.2223C37.0874 29.8707 36.621 30.3203 35.9378 30.3203ZM41.0531 33.3518C41.7273 33.3518 42.2891 33.1192 42.7119 32.7047L42.4016 32.2814C42.0645 32.6273 41.5891 32.8174 41.105 32.8174C40.2061 32.8174 39.6613 32.1602 39.6095 31.3735H42.9794V31.2094C42.9794 29.9566 42.2373 28.9724 40.9752 28.9724C39.7823 28.9724 38.9195 29.9479 38.9195 31.1578C38.9195 32.463 39.8083 33.3518 41.0531 33.3518ZM42.341 30.8906H39.601C39.6355 30.2592 40.0763 29.5068 40.9667 29.5068C41.9174 29.5068 42.3324 30.2765 42.341 30.8906ZM46.367 33.3518C47.6376 33.3518 48.4316 32.368 48.4316 31.1578C48.4316 29.9479 47.6376 28.9724 46.367 28.9724C45.0962 28.9724 44.3025 29.9479 44.3025 31.1578C44.3025 32.368 45.0962 33.3518 46.367 33.3518ZM46.367 32.7743C45.4767 32.7743 44.984 32.0136 44.984 31.1578C44.984 30.3108 45.4767 29.5502 46.367 29.5502C47.2574 29.5502 47.7501 30.3108 47.7501 31.1578C47.7501 32.0136 47.2574 32.7743 46.367 32.7743ZM52.0612 33.3518C53.1592 33.3518 53.9183 32.506 53.9183 31.1578C53.9183 29.8009 53.1592 28.9724 52.0612 28.9724C51.4733 28.9724 50.9546 29.2742 50.6521 29.6972V29.076H50.0052V34.8383H50.6521V32.6187C50.998 33.0761 51.4906 33.3518 52.0612 33.3518ZM51.8971 32.7743C51.3869 32.7743 50.877 32.4632 50.6521 32.1001V30.2166C50.877 29.8527 51.3869 29.5502 51.8971 29.5502C52.7354 29.5502 53.2368 30.2327 53.2368 31.1578C53.2368 32.0828 52.7354 32.7743 51.8971 32.7743ZM55.4661 33.2481H56.113V27.4859H55.4661V33.2481ZM59.8205 33.3518C60.4948 33.3518 61.0565 33.1192 61.4793 32.7047L61.1688 32.2814C60.8319 32.6273 60.3563 32.8174 59.8724 32.8174C58.9733 32.8174 58.4288 32.1602 58.3769 31.3735H61.7468V31.2094C61.7468 29.9566 61.0047 28.9724 59.7427 28.9724C58.5497 28.9724 57.6867 29.9479 57.6867 31.1578C57.6867 32.463 58.5758 33.3518 59.8205 33.3518ZM61.1084 30.8906H58.3681C58.4027 30.2592 58.844 29.5068 59.7339 29.5068C60.6849 29.5068 61.0999 30.2765 61.1084 30.8906ZM63.5964 33.3348C63.8554 33.3348 64.071 33.1189 64.071 32.8599C64.071 32.601 63.8554 32.3853 63.5964 32.3853C63.3375 32.3853 63.1218 32.601 63.1218 32.8599C63.1218 33.1189 63.3375 33.3348 63.5964 33.3348ZM69.264 33.2481V30.9585H70.8632C72.0127 30.9585 72.6684 30.1648 72.6684 29.2223C72.6684 28.2798 72.0213 27.4859 70.8632 27.4859H68.5479V33.2481H69.264ZM70.777 30.3203H69.264V28.1243H70.777C71.4597 28.1243 71.9263 28.5739 71.9263 29.2223C71.9263 29.8707 71.4597 30.3203 70.777 30.3203ZM77.1962 33.2481V30.3804C77.1962 29.3691 76.4714 28.9724 75.581 28.9724C74.898 28.9724 74.362 29.1965 73.9135 29.6626L74.2155 30.1124C74.5867 29.7059 74.9932 29.5326 75.4946 29.5326C76.0997 29.5326 76.5493 29.853 76.5493 30.4065V31.1573C76.2122 30.7779 75.7365 30.5966 75.166 30.5966C74.4572 30.5966 73.7151 31.0278 73.7151 31.9696C73.7151 32.878 74.466 33.3518 75.166 33.3518C75.728 33.3518 76.2122 33.1535 76.5493 32.7743V33.2481H77.1962ZM75.4079 32.8865C74.7943 32.8865 74.3705 32.5058 74.3705 31.9701C74.3705 31.4424 74.7943 31.0622 75.4079 31.0622C75.8575 31.0622 76.2986 31.2352 76.5493 31.5723V32.3678C76.2986 32.7137 75.8575 32.8865 75.4079 32.8865ZM80.3509 33.3518C81.4224 33.3518 81.9832 32.7916 81.9832 32.0913C81.9832 30.4663 79.3997 31.0629 79.3997 30.1553C79.3997 29.7833 79.7544 29.4983 80.3246 29.4983C80.8694 29.4983 81.319 29.723 81.5692 30.0255L81.871 29.5762C81.5431 29.2393 81.0422 28.9724 80.3246 28.9724C79.3306 28.9724 78.7786 29.5156 78.7786 30.1725C78.7786 31.7196 81.3623 31.0972 81.3623 32.1083C81.3623 32.5236 81.0079 32.8261 80.368 32.8261C79.7974 32.8261 79.2702 32.5491 78.9945 32.2298L78.6661 32.6964C79.0891 33.1364 79.6589 33.3518 80.3509 33.3518ZM84.887 33.3518C85.9589 33.3518 86.5194 32.7916 86.5194 32.0913C86.5194 30.4663 83.936 31.0629 83.936 30.1553C83.936 29.7833 84.2904 29.4983 84.8609 29.4983C85.4057 29.4983 85.8552 29.723 86.1054 30.0255L86.4075 29.5762C86.0799 29.2393 85.5787 28.9724 84.8609 28.9724C83.8671 28.9724 83.3151 29.5156 83.3151 30.1725C83.3151 31.7196 85.8985 31.0972 85.8985 32.1083C85.8985 32.5236 85.5439 32.8261 84.9042 32.8261C84.3337 32.8261 83.8065 32.5491 83.5305 32.2298L83.2026 32.6964C83.6254 33.1364 84.1952 33.3518 84.887 33.3518ZM88.4209 28.4785C88.6626 28.4785 88.8524 28.2889 88.8524 28.0472C88.8524 27.8055 88.6626 27.6071 88.4209 27.6071C88.1794 27.6071 87.9808 27.8055 87.9808 28.0472C87.9808 28.2889 88.1794 28.4785 88.4209 28.4785ZM88.0935 33.2481H88.7405V29.076H88.0935V33.2481ZM92.3783 33.3518C93.6492 33.3518 94.4429 32.368 94.4429 31.1578C94.4429 29.9479 93.6492 28.9724 92.3783 28.9724C91.1078 28.9724 90.3138 29.9479 90.3138 31.1578C90.3138 32.368 91.1078 33.3518 92.3783 33.3518ZM92.3783 32.7743C91.488 32.7743 90.9956 32.0136 90.9956 31.1578C90.9956 30.3108 91.488 29.5502 92.3783 29.5502C93.269 29.5502 93.7616 30.3108 93.7616 31.1578C93.7616 32.0136 93.269 32.7743 92.3783 32.7743ZM99.4803 33.2481V30.3193C99.4803 29.4122 99.0232 28.9724 98.1591 28.9724C97.5282 28.9724 96.9574 29.326 96.6637 29.6794V29.076H96.0165V33.2481H96.6637V30.1988C96.9144 29.8612 97.3897 29.5502 97.8997 29.5502C98.4617 29.5502 98.8424 29.7748 98.8424 30.5179V33.2481H99.4803ZM101.65 33.3348C101.909 33.3348 102.124 33.1189 102.124 32.8599C102.124 32.601 101.909 32.3853 101.65 32.3853C101.391 32.3853 101.175 32.601 101.175 32.8599C101.175 33.1189 101.391 33.3348 101.65 33.3348ZM107.318 33.2481V30.9585H108.916C110.066 30.9585 110.722 30.1648 110.722 29.2223C110.722 28.2798 110.075 27.4859 108.916 27.4859H106.601V33.2481H107.318ZM108.83 30.3203H107.318V28.1243H108.83C109.513 28.1243 109.98 28.5739 109.98 29.2223C109.98 29.8707 109.513 30.3203 108.83 30.3203ZM115.25 33.2481V30.3804C115.25 29.3691 114.525 28.9724 113.634 28.9724C112.952 28.9724 112.415 29.1965 111.967 29.6626L112.269 30.1124C112.64 29.7059 113.046 29.5326 113.548 29.5326C114.153 29.5326 114.602 29.853 114.602 30.4065V31.1573C114.265 30.7779 113.79 30.5966 113.219 30.5966C112.51 30.5966 111.768 31.0278 111.768 31.9696C111.768 32.878 112.519 33.3518 113.219 33.3518C113.781 33.3518 114.265 33.1535 114.602 32.7743V33.2481H115.25ZM113.462 32.8865C112.848 32.8865 112.424 32.5058 112.424 31.9701C112.424 31.4424 112.848 31.0622 113.462 31.0622C113.911 31.0622 114.352 31.2352 114.602 31.5723V32.3678C114.352 32.7137 113.911 32.8865 113.462 32.8865ZM116.849 34.8816C116.961 34.9159 117.178 34.942 117.316 34.942C117.868 34.9335 118.292 34.7005 118.542 34.0962L120.633 29.076H119.933L118.542 32.4978L117.16 29.076H116.451L118.197 33.2927L117.92 33.9234C117.774 34.2687 117.584 34.3639 117.298 34.3639C117.195 34.3639 117.039 34.3381 116.944 34.295L116.849 34.8816ZM122.473 33.2481V30.293C122.663 29.9561 123.207 29.6278 123.613 29.6278C123.709 29.6278 123.786 29.6363 123.864 29.6451V28.9809C123.294 28.9809 122.81 29.3087 122.473 29.74V29.076H121.826V33.2481H122.473ZM127.019 33.3518C128.289 33.3518 129.083 32.368 129.083 31.1578C129.083 29.9479 128.289 28.9724 127.019 28.9724C125.748 28.9724 124.954 29.9479 124.954 31.1578C124.954 32.368 125.748 33.3518 127.019 33.3518ZM127.019 32.7743C126.128 32.7743 125.635 32.0136 125.635 31.1578C125.635 30.3108 126.128 29.5502 127.019 29.5502C127.909 29.5502 128.401 30.3108 128.401 31.1578C128.401 32.0136 127.909 32.7743 127.019 32.7743ZM130.657 33.2481H131.304V27.4859H130.657V33.2481ZM133.119 33.2481H133.766V27.4859H133.119V33.2481ZM135.927 33.3348C136.186 33.3348 136.402 33.1189 136.402 32.8599C136.402 32.601 136.186 32.3853 135.927 32.3853C135.668 32.3853 135.452 32.601 135.452 32.8599C135.452 33.1189 135.668 33.3348 135.927 33.3348Z" fill="#333C42"/>
</svg>
