<svg width="115" height="33" viewBox="0 0 115 33" fill="none" xmlns="http://www.w3.org/2000/svg">
<path d="M12.3652 5.8429V14.9714H3.97885V5.8429H0V27.6339H3.97992V18.8016H12.3642V27.6339H16.3452V5.8429H12.3652ZM29.0841 20.5907C29.0841 21.4641 28.7372 22.3018 28.1196 22.9194C27.502 23.537 26.6643 23.884 25.7909 23.884C24.9174 23.884 24.0798 23.537 23.4622 22.9194C22.8446 22.3018 22.4976 21.4641 22.4976 20.5907V11.2565H18.7223V20.5907C18.7223 22.4635 19.4663 24.2597 20.7906 25.584C22.1149 26.9083 23.911 27.6522 25.7839 27.6522C27.6567 27.6522 29.4528 26.9083 30.7771 25.584C32.1014 24.2597 32.8454 22.4635 32.8454 20.5907V11.2565H29.0841V20.5907ZM57.0578 12.2183C57.0578 10.3043 58.3234 9.69788 59.7096 9.69788C60.8277 9.69788 62.3033 10.5488 63.2695 11.5807L65.7415 8.666C64.5071 6.99648 62.0039 5.8429 59.9541 5.8429C55.8579 5.8429 52.8958 8.24162 52.8958 12.2183C52.8958 19.5965 61.9134 17.2549 61.9134 21.3845C61.9134 22.6577 60.6769 23.7822 59.2616 23.7822C57.0287 23.7822 56.3049 22.6911 55.2795 21.5364L52.535 24.3897C54.2907 26.5439 56.4557 27.6382 59.0483 27.6382C62.9399 27.6382 66.07 25.2104 66.07 21.4147C66.07 13.2243 57.0513 15.7695 57.0513 12.2183M112.846 24.1527C110.615 24.1527 109.981 23.1876 109.981 21.7098V15.1664H113.449V11.851H109.981V7.47687L106.152 9.19486V22.523C106.152 25.9321 108.505 27.6501 111.73 27.6501C112.236 27.6587 112.742 27.6178 113.24 27.5294L114.174 24.0913C113.753 24.1204 113.269 24.1495 112.846 24.1495M43.455 11.3652C41.5851 11.3652 40.2796 11.9081 39.0173 13.1457V5.97323H35.2366V19.268C35.2366 24.2443 38.8341 27.6544 42.8776 27.6544C47.3627 27.6544 51.3082 24.1839 51.3082 19.5114C51.3082 14.8971 47.6772 11.3685 43.455 11.3685M43.4313 23.849C42.8678 23.849 42.3099 23.738 41.7893 23.5223C41.2687 23.3067 40.7957 22.9907 40.3973 22.5922C39.9989 22.1938 39.6828 21.7208 39.4672 21.2003C39.2516 20.6797 39.1406 20.1217 39.1406 19.5583C39.1406 18.9948 39.2516 18.4369 39.4672 17.9163C39.6828 17.3957 39.9989 16.9227 40.3973 16.5243C40.7957 16.1259 41.2687 15.8098 41.7893 15.5942C42.3099 15.3786 42.8678 15.2676 43.4313 15.2676C44.5692 15.2676 45.6606 15.7197 46.4652 16.5243C47.2699 17.329 47.7219 18.4203 47.7219 19.5583C47.7219 20.6962 47.2699 21.7876 46.4652 22.5922C45.6606 23.3969 44.5692 23.849 43.4313 23.849ZM84.5144 19.3132C84.5144 14.6321 80.5776 11.1703 76.0839 11.1703C72.0415 11.1703 68.4428 14.5793 68.4428 19.5567V32.859H72.2235V25.6768C73.4837 26.9123 74.7913 27.4573 76.659 27.4573C80.8813 27.4573 84.5144 23.9287 84.5144 19.3132ZM80.9341 19.2659C80.9341 20.4038 80.482 21.4952 79.6774 22.2998C78.8727 23.1045 77.7814 23.5565 76.6434 23.5565C75.5055 23.5565 74.4141 23.1045 73.6095 22.2998C72.8048 21.4952 72.3528 20.4038 72.3528 19.2659C72.3528 18.1279 72.8048 17.0365 73.6095 16.2319C74.4141 15.4272 75.5055 14.9752 76.6434 14.9752C77.7814 14.9752 78.8727 15.4272 79.6774 16.2319C80.482 17.0365 80.9341 18.1279 80.9341 19.2659Z" fill="#1F1F1F"/>
<path d="M96.7311 10.9873V7.18829C97.2331 6.95366 97.6581 6.58127 97.9568 6.11447C98.2554 5.64767 98.4153 5.10566 98.4178 4.55152V4.46428C98.4178 2.84861 97.1081 1.53884 95.4924 1.53884H95.4051C94.6293 1.53884 93.8852 1.84706 93.3365 2.39568C92.7879 2.94431 92.4797 3.6884 92.4797 4.46428V4.55152C92.4823 5.10566 92.6422 5.64767 92.9408 6.11447C93.2394 6.58127 93.6644 6.95366 94.1665 7.18829V10.9873C92.7236 11.2082 91.3648 11.8064 90.2275 12.7214L79.8086 4.60645C79.8829 4.33825 79.9217 4.06251 79.926 3.7857C79.9273 3.13373 79.7351 2.49602 79.374 1.95325C79.0128 1.41048 78.4987 0.98702 77.8968 0.73644C77.2949 0.485859 76.6322 0.419415 75.9926 0.54551C75.3529 0.671606 74.765 0.984577 74.3032 1.44484C73.8415 1.90509 73.5266 2.49196 73.3984 3.13121C73.2702 3.77045 73.3345 4.43335 73.5831 5.03606C73.8317 5.63877 74.2535 6.15421 74.7951 6.51718C75.3367 6.88015 75.9737 7.07434 76.6257 7.07519C77.1961 7.07251 77.7558 6.92023 78.2489 6.63358L88.5084 14.6171C87.5867 16.0095 87.1059 17.6472 87.1286 19.3168C87.1513 20.9864 87.6764 22.6104 88.6355 23.9772L85.5151 27.0987C85.2629 27.018 85.0001 26.9752 84.7353 26.9716C84.2001 26.972 83.6771 27.1311 83.2323 27.4287C82.7875 27.7262 82.4409 28.149 82.2363 28.6435C82.0317 29.138 81.9783 29.6821 82.0828 30.207C82.1873 30.7318 82.445 31.2139 82.8235 31.5923C83.2019 31.9708 83.684 32.2285 84.2088 32.333C84.7337 32.4375 85.2778 32.3841 85.7723 32.1795C86.2668 31.9749 86.6896 31.6283 86.9871 31.1835C87.2847 30.7387 87.4438 30.2157 87.4442 29.6805C87.4407 29.4157 87.3979 29.1529 87.3171 28.9007L90.4041 25.8126C91.4108 26.5876 92.5814 27.1219 93.8265 27.3745C95.0715 27.6272 96.3579 27.5915 97.587 27.2703C98.8161 26.949 99.9554 26.3506 100.918 25.521C101.88 24.6914 102.639 23.6526 103.138 22.4842C103.636 21.3157 103.861 20.0486 103.794 18.78C103.728 17.5113 103.371 16.2747 102.753 15.165C102.135 14.0553 101.27 13.1018 100.227 12.3777C99.1828 11.6535 97.9871 11.1779 96.7311 10.9873ZM95.4515 23.4817C94.8809 23.4974 94.3131 23.3986 93.7814 23.1911C93.2497 22.9837 92.765 22.6717 92.3559 22.2737C91.9469 21.8758 91.6217 21.3998 91.3997 20.8741C91.1776 20.3483 91.0632 19.7833 91.0632 19.2126C91.0632 18.6419 91.1776 18.0769 91.3997 17.5512C91.6217 17.0254 91.9469 16.5495 92.3559 16.1515C92.765 15.7535 93.2497 15.4416 93.7814 15.2341C94.3131 15.0266 94.8809 14.9278 95.4515 14.9435C96.5572 14.9822 97.6048 15.4485 98.3735 16.2443C99.1422 17.04 99.5722 18.103 99.5727 19.2095C99.5733 20.3159 99.1444 21.3793 98.3765 22.1758C97.6086 22.9724 96.5615 23.4397 95.4558 23.4796" fill="#FF7A59"/>
</svg>
