<?xml version="1.0" encoding="utf-8"?>
<!-- Generator: Adobe Illustrator 19.0.0, SVG Export Plug-In . SVG Version: 6.00 Build 0)  -->
<svg version="1.1" id="Layer_1" xmlns="http://www.w3.org/2000/svg" xmlns:xlink="http://www.w3.org/1999/xlink" x="0px" y="0px"
	 viewBox="0 0 537 80" enable-background="new 0 0 537 80" xml:space="preserve">
<g id="XMLID_20_">
	<g>
		<g>
			<path id="XMLID_122_" fill="#0FACBC" d="M329.5,74.3V24.6h4.2V35c4.5-8.5,12-11.6,18-11.6l1.3,0v4.2h-1.6c-7.4,0-17.7,8-17.7,21
				v25.7H329.5z"/>
			<path id="XMLID_121_" fill="#0FACBC" d="M332.9,38.9V25.4h-2.6v48.1h2.6V48.6c0-13.5,10.8-21.8,18.5-21.8h0.8v-2.5l-0.5,0
				C342.2,24.3,335.6,31.3,332.9,38.9z"/>
			<path fill="#0FACBC" d="M379.8,74.5c-14.2,0-24.6-10.8-24.6-25.7v-0.2c0-14.5,10.2-25.5,23.6-25.5c7.1,0,13.1,2.9,17.2,8.4
				c3.5,4.6,5.5,11,5.5,17.4v1.5h-41.8c0.8,11.6,9.2,19.9,20.2,19.9c6.2,0,12.5-3.4,16.4-9l0.7-0.9l3.4,2.4l-0.6,0.9
				C395.1,70.6,387.8,74.5,379.8,74.5z M397.1,46.5c-0.8-9.7-7.2-19.2-18.3-19.2c-10.4,0-18.1,7.9-19,19.2H397.1z"/>
			<path fill="#0FACBC" d="M378.9,24c-13,0-22.8,10.6-22.8,24.7v0.2c0,14.4,10,24.9,23.7,24.9c7.7,0,14.7-3.8,19.3-10.3l0.2-0.2
				l-2.1-1.5l-0.2,0.2c-4.1,5.8-10.7,9.3-17.1,9.3c-11.8,0-20.6-9-21.1-21.5h41.9V49c0-6.3-1.9-12.5-5.3-16.9
				C391.5,26.8,385.8,24,378.9,24z M358.9,47.3c0.6-12.3,8.8-20.9,19.9-20.9c12,0,18.7,10.4,19.2,20.9H358.9z"/>
			<path id="XMLID_116_" fill="#0FACBC" d="M451.7,74.3V46.5c0-11.8-6.3-18.9-16.8-18.9c-9.8,0-17.5,8.5-17.5,19.3v27.4h-4.2V24.6
				h4.2v8.8c3.1-5.1,9.1-9.9,17.7-9.9c13,0,20.8,8.6,20.8,22.9v28H451.7z"/>
			<path id="XMLID_115_" fill="#0FACBC" d="M435.1,24.3c-10.2,0-16.3,7-18.5,12.6V25.4H414v48.1h2.6V46.9c0-11.3,8.1-20.1,18.3-20.1
				c11,0,17.6,7.4,17.6,19.7v27h2.6V46.3C455.1,32.5,447.7,24.3,435.1,24.3z"/>
			<path id="XMLID_114_" fill="#0FACBC" d="M485.9,74.3c-8.2,0-13.1-5.2-13.1-14v-32h-7.4v-4h7.4V8.1h4.2v16.2h17.3v4H477v31.8
				c0,6.7,3,10,8.9,10c2.2,0,4.6-0.6,6.6-1.6l1.6-0.8v4.6l-0.7,0.3C491.1,73.7,488.6,74.3,485.9,74.3z"/>
			<path id="XMLID_113_" fill="#0FACBC" d="M493.5,27.5v-2.4h-17.3V8.9h-2.6v16.2h-7.4v2.4h7.4v32.8c0,8.4,4.5,13.1,12.3,13.1
				c2.6,0,5-0.5,7.3-1.5l0.2-0.1v-2.8l-0.4,0.2c-2.1,1.1-4.6,1.7-7,1.7c-6.4,0-9.7-3.8-9.7-10.8V27.5H493.5z"/>
		</g>
		<g>
			<rect id="XMLID_112_" x="102.7" y="24.6" fill="#58595B" width="4.2" height="49.7"/>
			<rect id="XMLID_111_" x="103.6" y="25.4" fill="#58595B" width="2.6" height="48.1"/>
			<path id="XMLID_110_" fill="#58595B" d="M161.2,74.3V46.5c0-11.8-6.3-18.9-16.8-18.9c-9.8,0-17.5,8.5-17.5,19.3v27.4h-4.2V24.6
				h4.2v8.8c3.1-5.1,9.1-9.9,17.7-9.9c13,0,20.8,8.6,20.8,22.9v28H161.2z"/>
			<path id="XMLID_109_" fill="#58595B" d="M144.6,24.3c-10.2,0-16.3,7-18.5,12.6V25.4h-2.6v48.1h2.6V46.9
				c0-11.3,8.1-20.1,18.3-20.1c11,0,17.6,7.4,17.6,19.7v27h2.6V46.3C164.6,32.5,157.2,24.3,144.6,24.3z"/>
			<path id="XMLID_108_" fill="#58595B" d="M195.4,74.3c-8.2,0-13.1-5.2-13.1-14v-32h-7.4v-4h7.4V8.1h4.2v16.2h17.3v4h-17.3v31.8
				c0,6.7,3,10,8.9,10c2.2,0,4.6-0.6,6.6-1.6l1.6-0.8v4.6l-0.7,0.3C200.6,73.7,198.1,74.3,195.4,74.3z"/>
			<path id="XMLID_107_" fill="#58595B" d="M185.6,8.9h-2.6v16.2h-7.4v2.4h7.4v32.8c0,8.4,4.5,13.1,12.3,13.1c2.6,0,5-0.5,7.3-1.5
				l0.2-0.1v-2.8l-0.4,0.2c-2.1,1.1-4.6,1.7-7,1.7c-6.4,0-9.7-3.8-9.7-10.8V27.5H203v-2.4h-17.3V8.9z"/>
			<path fill="#58595B" d="M234.5,74.5c-14.2,0-24.6-10.8-24.6-25.7v-0.2c0-14.5,10.2-25.5,23.6-25.5c7.1,0,13.1,2.9,17.2,8.4
				c3.5,4.6,5.5,11,5.5,17.4v1.5h-41.8c0.8,11.6,9.2,19.9,20.2,19.9c6.2,0,12.5-3.4,16.4-9l0.7-0.9l3.4,2.4l-0.6,0.9
				C249.8,70.6,242.5,74.5,234.5,74.5z M251.8,46.5c-0.8-9.7-7.2-19.2-18.3-19.2c-10.4,0-18.1,7.9-19,19.2H251.8z"/>
			<path fill="#58595B" d="M233.6,24c-13,0-22.8,10.6-22.8,24.7v0.2c0,14.4,10,24.9,23.7,24.9c7.7,0,14.7-3.8,19.3-10.3l0.2-0.2
				l-2.1-1.5l-0.2,0.2c-4.1,5.8-10.7,9.3-17.1,9.3c-11.8,0-20.6-9-21.1-21.5h41.9V49c0-6.3-1.9-12.5-5.3-16.9
				C246.2,26.8,240.5,24,233.6,24z M213.6,47.3c0.6-12.3,8.8-20.9,19.9-20.9c12,0,18.7,10.4,19.2,20.9H213.6z"/>
			<rect id="XMLID_102_" x="268.5" y="2.7" fill="#58595B" width="4.2" height="71.6"/>
			<rect id="XMLID_101_" x="269.3" y="3.6" fill="#58595B" width="2.6" height="69.9"/>
			<rect id="XMLID_100_" x="289" y="2.7" fill="#58595B" width="4.2" height="71.6"/>
			<rect id="XMLID_99_" x="289.8" y="3.6" fill="#58595B" width="2.6" height="69.9"/>
			<rect id="XMLID_98_" x="309.5" y="24.6" fill="#58595B" width="4.2" height="49.7"/>
			<rect id="XMLID_97_" x="310.4" y="25.4" fill="#58595B" width="2.6" height="48.1"/>
			<path id="XMLID_96_" fill="#58595B" d="M311.6,19.2c-1.4,0-2.6-1.2-2.6-2.6c0-1.4,1.2-2.6,2.6-2.6c1.4,0,2.6,1.2,2.6,2.6
				C314.2,18.1,313.1,19.2,311.6,19.2z"/>
			<circle id="XMLID_95_" fill="#58595B" cx="311.6" cy="16.6" r="1.8"/>
			<circle id="XMLID_91_" fill="#58595B" cx="104.9" cy="16.5" r="2.6"/>
			<circle id="XMLID_90_" fill="#58595B" cx="104.9" cy="16.5" r="1.8"/>
		</g>
	</g>
	<g id="Symbol">
		<path fill="#0FACBC" d="M24.7,1.6h-24v24h24V1.6z M13.6,20.2H5.1V7h8.5V4.6l9,9l-9,9V20.2z"/>
		<path fill="#0FACBC" d="M51.1,1.6h-24v24h24V1.6z M40,20.2h-8.5V7H40V4.6l9,9l-9,9V20.2z"/>
		<path fill="#0FACBC" d="M77.5,25.6v-24h-24v24H77.5z M58.9,14.4V5.9h13.3v8.5h2.3l-9,9l-9-9H58.9z"/>
		<path fill="#0FACBC" d="M24.7,52V28h-24v24H24.7z M6.1,40.8v-8.5h13.3v8.5h2.3l-9,9l-9-9H6.1z"/>
		<path fill="#0FACBC" d="M27.2,52h24V28h-24V52z M38.3,33.4h8.5v13.3h-8.5V49l-9-9l9-9V33.4z"/>
		<path fill="#0FACBC" d="M53.6,52h24V28h-24V52z M64.7,33.4h8.5v13.3h-8.5V49l-9-9l9-9V33.4z"/>
		<path fill="#0FACBC" d="M24.7,54.4h-24v24h24V54.4z M13.6,73H5.1V59.8h8.5v-2.3l9,9l-9,9V73z"/>
		<path fill="#0FACBC" d="M51.1,54.4h-24v24h24V54.4z M40,73h-8.5V59.8H40v-2.3l9,9l-9,9V73z"/>
		<g>
			<g id="XMLID_125_">
				<g id="XMLID_127_">
					<polygon id="XMLID_138_" fill="#0FACBC" points="72.2,74.1 72.2,65.6 74.5,65.6 65.6,56.6 56.6,65.6 58.9,65.6 58.9,74.1 					
						"/>
				</g>
			</g>
		</g>
	</g>
	<g>
		<path fill="#58595B" d="M511.9,8.3h-4.6v-2h11.3v2h-4.6v12.4h-2V8.3z M521.7,6.4h2.2l5.1,7.9l5.1-7.9h2.1v14.3h-2v-11l-5.1,7.8
			h-0.3l-5.1-7.8v11h-2V6.4z"/>
	</g>
</g>
</svg>
