<svg width="169" height="31" viewBox="0 0 169 31" fill="none" xmlns="http://www.w3.org/2000/svg">
<g clip-path="url(#clip0_1611_3655)">
<path d="M25.7531 15.9655C25.5118 15.6868 25.3181 15.4013 25.1549 15.1158L15.0748 24.8187C14.5684 25.3081 13.7357 25.3081 13.2293 24.8187L6.25887 18.1066C6.01078 18.1201 5.75928 18.1337 5.50099 18.1337C3.70994 18.1337 2.25536 17.7871 1.14062 17.1176V17.8585C1.14062 18.3139 1.32755 18.7489 1.66061 19.0717L12.6414 29.6413C13.474 30.4434 14.8335 30.4434 15.6661 29.6413L28.1729 17.6036C27.1941 17.2399 26.3852 16.6961 25.7565 15.9689L25.7531 15.9655Z" fill="#F95738"/>
<path d="M11.986 14.8677C11.8024 15.2382 11.5679 15.6086 11.2553 15.9688C10.7047 16.6078 10.008 17.0972 9.18555 17.454L13.2027 21.3216C13.7192 21.8212 14.5689 21.8212 15.0855 21.3216L18.3923 18.1405C18.3583 18.1405 18.3379 18.1405 18.2971 18.1405C15.1432 18.1405 12.8594 16.9034 11.9826 14.8677H11.986Z" fill="#F95738"/>
<path d="M36.4491 18.4023V16.7166C35.3479 17.5968 33.8186 18.0658 31.878 18.1202L20.9414 28.3431L22.8038 30.0764C23.2558 30.4978 23.9593 30.4978 24.4113 30.0764L36.0379 19.3301C36.2961 19.0922 36.4423 18.7557 36.4423 18.4023H36.4491Z" fill="#F95738"/>
<path d="M13.6201 9.31447V12.8898C13.6201 16.4311 18.6534 16.1898 18.6534 16.1898C18.6534 16.1898 23.6867 16.4345 23.6867 12.8898V9.31447C23.6867 9.10715 23.6527 8.90324 23.5915 8.70612L21.0256 0.821442H16.2812L13.7187 8.70612C13.6541 8.90324 13.6235 9.10715 13.6235 9.31447H13.6201Z" fill="#F95738"/>
<path d="M35.9251 22.8714L28.7881 29.7671C28.5366 30.0118 28.7099 30.44 29.0599 30.44H35.2895C36.0066 30.44 36.5878 29.8588 36.5878 29.1417V23.1534C36.5878 22.8102 36.1732 22.6335 35.9251 22.8714Z" fill="#F95738"/>
<path d="M1.79944 22.8714C1.55134 22.6301 1.13672 22.8068 1.13672 23.1535V29.1417C1.13672 29.8588 1.71787 30.44 2.43497 30.44H8.66795C9.018 30.44 9.19133 30.0118 8.93983 29.7671L1.79944 22.8714Z" fill="#F95738"/>
<path d="M27.3641 14.5309C27.3506 14.514 27.337 14.4937 27.3235 14.4768C27.3167 14.4666 27.3066 14.4565 27.2998 14.4463C27.3201 14.4734 27.3404 14.5038 27.3641 14.5309Z" fill="#F95738"/>
<path d="M26.6608 9.5286V11.9858C26.6676 12.431 26.7424 13.5831 27.2488 14.3716C27.259 14.3852 27.2692 14.3987 27.2794 14.4157C27.293 14.4361 27.31 14.4565 27.327 14.4769C27.3949 14.5619 27.4493 14.6332 27.4935 14.6876C28.2038 15.5067 29.502 16.1932 31.8471 16.1932C33.8012 16.1932 34.9839 15.7446 35.6976 15.1498C36.5337 14.4769 36.6696 12.9646 36.6866 12.2441C36.6866 12.2339 36.6866 12.2305 36.6866 12.2305V8.97803C36.6866 8.45465 36.4725 7.95846 36.0919 7.60501L28.8393 0.82486H23.1025L26.5895 9.17515C26.6371 9.2873 26.6608 9.40625 26.6608 9.5286Z" fill="#F95738"/>
<path d="M1.66086 15.1497C2.37456 15.7445 3.56066 16.1931 5.51144 16.1931C7.85985 16.1931 9.15471 15.5066 9.86501 14.6875C9.90919 14.6332 9.96356 14.5618 10.0315 14.4768C10.0451 14.4564 10.0621 14.436 10.0791 14.4156C10.0893 14.4021 10.0995 14.3885 10.1097 14.3715C10.6161 13.583 10.6875 12.4309 10.6977 11.9857V9.52851C10.6977 9.40616 10.7214 9.28721 10.769 9.17505L14.256 0.824768H8.51917L1.26662 7.60491C0.889383 7.95837 0.671875 8.45796 0.671875 8.97794V12.2304C0.671875 12.2304 0.671875 12.2338 0.671875 12.244C0.688868 12.9679 0.824811 14.4768 1.66086 15.1497Z" fill="#F95738"/>
</g>
<g clip-path="url(#clip1_1611_3655)">
<path fill-rule="evenodd" clip-rule="evenodd" d="M64.3896 6.79617V25.3281H60.6737V13.2769L55.7078 25.3281H52.8954L47.9024 13.2769V25.3281H44.1865V6.79617H48.4085L54.3016 20.5762L60.1948 6.79617H64.3896Z" fill="#154727"/>
<path fill-rule="evenodd" clip-rule="evenodd" d="M77.5654 17.9744C77.5654 17.0709 77.3888 16.2965 77.0355 15.6511C76.6823 15.0058 76.2033 14.5099 75.6021 14.1634C75.0009 13.817 74.3556 13.6471 73.6627 13.6471C72.9698 13.6471 72.3346 13.8136 71.7504 14.1498C71.1662 14.4861 70.694 14.9786 70.3306 15.624C69.9672 16.2693 69.7871 17.0369 69.7871 17.9201C69.7871 18.8032 69.9672 19.581 70.3306 20.2433C70.694 20.9057 71.173 21.4152 71.764 21.7718C72.3584 22.1251 72.9901 22.3017 73.6627 22.3017C74.3352 22.3017 74.9975 22.1285 75.6021 21.7854C76.2033 21.439 76.6823 20.943 77.0355 20.2977C77.3888 19.6523 77.5654 18.8779 77.5654 17.9744ZM65.9897 17.9201C65.9897 16.4323 66.2852 15.1145 66.8796 13.963C67.474 12.8116 68.279 11.9284 69.2946 11.3069C70.3136 10.6887 71.4481 10.3762 72.7048 10.3762C73.8019 10.3762 74.7632 10.597 75.5852 11.0385C76.4071 11.4801 77.0661 12.0371 77.562 12.7097V10.6106H81.305V25.3281H77.562V23.178C77.0831 23.8675 76.4241 24.4382 75.5852 24.8899C74.7462 25.3417 73.7748 25.5658 72.6777 25.5658C71.4379 25.5658 70.3102 25.2466 69.2912 24.6114C68.2722 23.9728 67.4673 23.0761 66.8762 21.9179C66.2818 20.7596 65.9863 19.4282 65.9863 17.9235L65.9897 17.9201Z" fill="#154727"/>
<path fill-rule="evenodd" clip-rule="evenodd" d="M87.0958 12.9033C87.5747 12.1254 88.1963 11.5141 88.9673 11.0725C89.7383 10.6309 90.6181 10.4102 91.6099 10.4102V14.3129H90.6283C89.4598 14.3129 88.5801 14.588 87.9857 15.1348C87.3913 15.6851 87.0958 16.6395 87.0958 18.0016V25.3281H83.3799V10.6207H87.0958V12.9033Z" fill="#154727"/>
<path fill-rule="evenodd" clip-rule="evenodd" d="M101.949 25.3281L96.9595 19.0647V25.3281H93.2402V5.68207H96.9595V16.8603L101.895 10.6207H106.728L100.251 18.0016L106.783 25.3281H101.949Z" fill="#154727"/>
<path fill-rule="evenodd" clip-rule="evenodd" d="M113.165 13.6743V20.7902C113.165 21.2861 113.284 21.6427 113.525 21.8669C113.763 22.0877 114.167 22.1998 114.734 22.1998H116.46V25.3314H114.123C110.991 25.3314 109.426 23.8098 109.426 20.7664V13.6743H107.673V10.6207H116.46V13.6743H113.169H113.165Z" fill="#154727"/>
<path fill-rule="evenodd" clip-rule="evenodd" d="M109.272 5.68207H113.314V9.72404L109.272 5.68207Z" fill="#F95738"/>
<path d="M125.084 15.3862C126.099 15.3862 126.853 15.1552 127.342 14.6899C127.831 14.2245 128.076 13.5724 128.076 12.7334C128.076 10.9468 127.077 10.0535 125.08 10.0535H122.166V15.3862H125.08H125.084ZM131.86 12.7334C131.86 13.715 131.629 14.6321 131.163 15.4915C130.698 16.3508 129.971 17.0403 128.983 17.5668C127.994 18.0933 126.744 18.3548 125.24 18.3548H122.166V25.396H118.487V7.06107H125.24C126.66 7.06107 127.865 7.30562 128.864 7.79813C129.863 8.28724 130.61 8.96317 131.109 9.81911C131.608 10.6785 131.856 11.6499 131.856 12.7368L131.86 12.7334Z" fill="#F95738"/>
<path d="M142.407 22.2949C143.511 22.2949 144.482 22.047 145.321 21.5477C146.163 21.0484 146.819 20.3351 147.291 19.4078C147.763 18.4805 148.001 17.4038 148.001 16.1776C148.001 14.9514 147.763 13.8781 147.291 12.961C146.819 12.0405 146.16 11.3374 145.321 10.8449C144.482 10.3558 143.507 10.1079 142.407 10.1079C141.306 10.1079 140.328 10.3524 139.479 10.8449C138.63 11.334 137.967 12.0405 137.495 12.961C137.023 13.8815 136.785 14.9548 136.785 16.1776C136.785 17.4004 137.023 18.4805 137.495 19.4078C137.967 20.3351 138.63 21.0484 139.479 21.5477C140.328 22.047 141.303 22.2949 142.407 22.2949ZM142.407 25.5794C140.691 25.5794 139.115 25.1752 137.679 24.3702C136.242 23.5652 135.104 22.4478 134.265 21.0212C133.426 19.5946 133.005 17.9778 133.005 16.1742C133.005 14.3706 133.426 12.781 134.265 11.3544C135.107 9.92785 136.245 8.81036 137.679 8.00537C139.115 7.20037 140.691 6.79617 142.407 6.79617C144.122 6.79617 145.722 7.20037 147.148 8.00537C148.575 8.81036 149.706 9.92785 150.538 11.3544C151.37 12.781 151.785 14.3876 151.785 16.1742C151.785 17.9608 151.37 19.5946 150.538 21.0212C149.706 22.4478 148.572 23.5652 147.135 24.3702C145.698 25.1752 144.122 25.5794 142.407 25.5794Z" fill="#F95738"/>
<path d="M160.279 25.5794C159.002 25.5794 157.85 25.362 156.825 24.9238C155.799 24.4857 154.99 23.8539 154.396 23.0319C153.802 22.2099 153.493 21.2351 153.476 20.1176H157.416C157.467 20.8717 157.735 21.4661 158.217 21.9043C158.7 22.3424 159.359 22.5598 160.201 22.5598C161.043 22.5598 161.733 22.3526 162.222 21.9416C162.711 21.5306 162.959 20.9906 162.959 20.3248C162.959 19.7814 162.792 19.3364 162.46 18.9866C162.127 18.6367 161.712 18.3616 161.213 18.1578C160.714 17.9574 160.028 17.7332 159.151 17.4887C157.959 17.1388 156.991 16.7924 156.247 16.4527C155.503 16.1096 154.865 15.5933 154.328 14.9038C153.795 14.2109 153.527 13.287 153.527 12.1322C153.527 11.0453 153.798 10.101 154.342 9.29603C154.885 8.49103 155.646 7.87285 156.628 7.44488C157.609 7.0169 158.73 6.80292 159.99 6.80292C161.882 6.80292 163.417 7.26146 164.599 8.18194C165.782 9.10242 166.434 10.3829 166.556 12.0303H162.511C162.477 11.3985 162.208 10.8789 161.709 10.4679C161.21 10.0569 160.547 9.84968 159.725 9.84968C159.009 9.84968 158.435 10.0331 158.003 10.3999C157.575 10.7668 157.361 11.3034 157.361 12.0031C157.361 12.4922 157.524 12.8998 157.847 13.2259C158.17 13.5486 158.574 13.8135 159.056 14.0139C159.539 14.2143 160.218 14.4487 161.091 14.7102C162.283 15.0601 163.254 15.4099 164.005 15.7598C164.759 16.1096 165.408 16.6361 165.948 17.3358C166.491 18.0355 166.763 18.956 166.763 20.0939C166.763 21.0755 166.508 21.9858 166.002 22.8247C165.493 23.6637 164.749 24.3362 163.771 24.8355C162.789 25.3348 161.624 25.5828 160.276 25.5828" fill="#F95738"/>
</g>
<defs>
<clipPath id="clip0_1611_3655">
<rect width="36.0146" height="29.6185" fill="white" transform="translate(0.671875 0.821442)"/>
</clipPath>
<clipPath id="clip1_1611_3655">
<rect width="122.58" height="19.8973" fill="white" transform="translate(44.1865 5.68204)"/>
</clipPath>
</defs>
</svg>
