<svg width="20" height="20" viewBox="0 0 20 20" fill="none" xmlns="http://www.w3.org/2000/svg">
<g clip-path="url(#clip0_3832_10027)">
<path d="M8.7639 7.74216L0.474317 16.0317C0.165975 16.34 0.0117188 16.7093 0.0117188 17.1394C0.0117188 17.5777 0.165932 17.9428 0.474317 18.2352L1.76456 19.5499C2.08117 19.8501 2.4504 20.0001 2.87228 20.0001C3.30243 20.0001 3.66761 19.8501 3.96789 19.5499L12.2695 11.248C11.4744 10.9314 10.7706 10.4668 10.1576 9.85421C9.54503 9.24145 9.08051 8.53744 8.7639 7.74216ZM4.19923 16.9082C4.04485 17.0623 3.86228 17.1395 3.65136 17.1395C3.44036 17.1395 3.25779 17.0623 3.10362 16.9082C2.94941 16.754 2.87228 16.5714 2.87228 16.3604C2.87228 16.1496 2.94941 15.9668 3.10362 15.8124C3.25779 15.6585 3.44023 15.5813 3.65136 15.5813C3.86241 15.5813 4.04502 15.6585 4.19923 15.8124C4.35336 15.9668 4.43049 16.1496 4.43049 16.3604C4.43049 16.5714 4.35336 16.754 4.19923 16.9082Z" fill="#F84756"/>
<path d="M19.8844 5.64828C19.8154 5.56701 19.72 5.52651 19.5984 5.52651C19.5255 5.52651 19.2395 5.67066 18.7402 5.95875C18.2412 6.24676 17.6912 6.57535 17.0908 6.94466C16.4901 7.31402 16.1696 7.51078 16.1291 7.53517L13.7797 6.23264V3.50591L17.3462 1.44855C17.476 1.35932 17.5409 1.24569 17.5409 1.10772C17.5409 0.969839 17.476 0.856257 17.3462 0.766977C16.989 0.523441 16.5527 0.334735 16.0377 0.200858C15.5223 0.066981 15.0292 0 14.5587 0C13.0574 0 11.7732 0.533716 10.7062 1.60081C9.6388 2.66781 9.10547 3.95214 9.10547 5.45339C9.10547 6.95468 9.6391 8.23896 10.7062 9.30605C11.7732 10.3731 13.0574 10.9068 14.5587 10.9068C15.703 10.9068 16.7519 10.5677 17.7054 9.89025C18.6588 9.21264 19.3265 8.33012 19.7079 7.24269C19.8943 6.69904 19.9877 6.26884 19.9877 5.95244C19.988 5.83101 19.9532 5.72954 19.8844 5.64828Z" fill="#F84756"/>
</g>
<defs>
<clipPath id="clip0_3832_10027">
<rect width="20" height="20" fill="white"/>
</clipPath>
</defs>
</svg>
