<svg xmlns="http://www.w3.org/2000/svg" width="139" height="51" version="1.2" viewBox="0 0 139 51"><title>Virtru Logo Blue (1)-svg</title><style>.s0{fill:#004987}.s1{fill:#6aaae4}</style><path id="Layer" d="m80.7 34.5c-1.2 0-2.2-1-2.2-2.2v-12.6c0-1.3 1-2.3 2.2-2.3 1.2 0 2.2 1 2.2 2.3v12.6c0 1.2-1 2.2-2.2 2.2z" class="s0"/><path id="Layer" d="m89.6 34.5c-1.2 0-2.2-1-2.2-2.2v-13.6l1.3-0.6c0.5-0.2 4.4-1.8 7.9-0.5 1.2 0.4 1.7 1.7 1.3 2.8-0.4 1.1-1.7 1.7-2.8 1.3-1-0.4-2.3-0.2-3.2 0v10.6c-0.1 1.2-1.1 2.2-2.3 2.2z" class="s0"/><path id="Layer" d="m109.6 19.7c0 1.2-1 2.2-2.2 2.2h-2.3v10.4c0 1.2-1 2.2-2.3 2.2-1.2 0-2.2-1-2.2-2.2v-16.2c0-1.2 1-2.2 2.2-2.2 1.3 0 2.3 1 2.3 2.2v1.4h2.3c1.2 0 2.2 1 2.2 2.2z" class="s0"/><circle id="Layer" cx="80.7" cy="12.9" r="2.2" class="s0"/><path id="Layer" d="m114.5 34.5c-1.2 0-2.2-1-2.2-2.2v-13.6l1.4-0.6c0.5-0.1 4.4-1.6 7.8-0.3 1.2 0.4 1.7 1.7 1.3 2.8-0.4 1.1-1.7 1.7-2.8 1.3-1-0.4-2.2-0.3-3.2-0.1v10.5c0 1.2-1 2.2-2.3 2.2z" class="s0"/><path id="Layer" d="m132.3 34.5c-3.7 0-6.7-2.9-6.7-6.6v-8.2c0-1.2 1-2.2 2.2-2.2 1.2 0 2.2 1 2.2 2.2v8.2c0 1.2 1 2.2 2.3 2.2 1.2 0 2.2-1 2.2-2.2v-8.2c0-1.2 1-2.2 2.2-2.2 1.2 0 2.2 1 2.2 2.2v8.2c0 3.7-3 6.6-6.6 6.6z" class="s0"/><path id="Layer" d="m60.4 34.9v-16.8h4.4v10.7 0.2c2.5-1.3 5.9-4 5.9-9.3 0-1.3 1-2.3 2.2-2.3 1.2 0 2.2 1 2.2 2.3 0 9.5-7.9 13.6-12 14.6-0.1 0.1-1.8 0.5-2.7 0.6z" class="s0"/><path id="Layer" d="m19.6 18.1h4.4v10.8 0.1c2.5-1.3 5.9-4 5.9-9.3 0-1.2 1-2.2 2.2-2.2 1.2 0 2.2 1 2.2 2.2 0 9.5-7.9 13.6-12.1 14.7 0 0-1.7 0.4-2.6 0.5v-16.8z" class="s0"/><path id="Layer" d="m50.6 27.4c-1 13.9-13.2 24.4-27.1 23.3-14-1-24.4-13.2-23.4-27.1 1.1-14 13.2-24.5 27.2-23.4 3.1 0.2 6 1 8.7 2.3q0.4 0.1 0.6 0.4c0.9 1.1 0.9 2.7-0.2 3.6-0.8 0.7-1.9 0.8-2.8 0.4q0.1 0.1 0.2 0.1c-2.1-1-4.5-1.6-7-1.8-11.1-0.9-20.8 7.6-21.7 18.7-0.8 11.2 7.6 21 18.7 21.8 11.2 0.9 20.9-7.5 21.7-18.7 0.4-4.5-0.8-8.7-3-12.3q0.1 0.1 0.2 0.2c0.9 0.4 2 0.3 2.9-0.4 0.8-0.5 1.2-1.4 1.3-2.3 2.7 4.3 4.1 9.6 3.7 15.2z" class="s0"/><path id="Layer" d="m46.8 12.1c0 0.9-0.5 1.8-1.3 2.4-0.8 0.6-1.9 0.7-2.9 0.4q0-0.1-0.1-0.2c-0.1-0.2-0.2-0.3-0.3-0.5 0 0-0.1-0.1-0.1-0.2q-0.7-1-1.5-2c-0.2-0.1-0.3-0.2-0.4-0.3-0.1-0.1-0.1-0.2-0.2-0.3q-0.2-0.2-0.3-0.3-0.2-0.2-0.5-0.4v-0.1c-0.2-0.2-0.4-0.3-0.6-0.5q-1.7-1.5-3.8-2.6c-0.2-0.1-0.4-0.3-0.7-0.4-0.1 0-0.2-0.1-0.3-0.1q-0.1 0-0.2-0.1c0.9 0.4 2 0.3 2.8-0.4 1-0.9 1.1-2.5 0.2-3.6q-0.2-0.2-0.6-0.4c0.3 0.1 0.7 0.3 1.1 0.5 0 0 0 0 0 0 0.1 0.1 0.3 0.1 0.4 0.2q0.8 0.4 1.5 0.9c0 0 0 0 0 0 1.3 0.9 2.6 1.8 3.7 2.9 0 0.1 0 0.1 0.1 0.1 0.2 0.2 0.4 0.4 0.6 0.6 0.1 0.1 0.2 0.2 0.2 0.3 0.1 0.1 0.3 0.2 0.4 0.3 0.1 0.2 0.2 0.3 0.4 0.5 0 0 0.1 0.1 0.1 0.1q0 0 0.1 0.1c0.1 0.1 0.1 0.2 0.2 0.3q0.6 0.6 1.1 1.4c0.1 0.1 0.2 0.3 0.3 0.5 0.1 0.1 0.1 0.2 0.2 0.3q0.2 0.2 0.3 0.4c0 0.1 0.1 0.2 0.1 0.2z" class="s1"/></svg>