<svg width="190" height="44" viewBox="0 0 190 44" fill="none" xmlns="http://www.w3.org/2000/svg">
<g clip-path="url(#clip0_1078_9781)">
<path d="M9.02065 41.4938L38.9873 11.5271L30.0081 2.53125L0.0581055 32.4397L9.02065 41.4938Z" fill="#6946F5"/>
<path d="M38.9874 11.5271L29.9832 2.50635C27.6781 4.81148 24.4909 6.2345 20.9707 6.2345C17.4756 6.2345 14.305 4.8198 12.0082 2.53963C13.1316 3.68804 13.8307 5.26085 13.8223 7.0001C13.8223 10.5202 10.968 13.3746 7.44788 13.3663C5.69198 13.3663 4.10253 12.6506 2.9458 11.5022C6.06646 14.6312 10.0027 16.9529 14.4049 18.1263L30.0082 2.53131L38.9957 11.5271H38.9874Z" fill="#05D9FD"/>
<path d="M9.02065 41.4938L38.9873 11.5271L30.0081 2.53125L0.0581055 32.4397L9.02065 41.4938Z" fill="#6946F5"/>
<path d="M14.3965 18.1179C16.4936 18.6755 18.6905 18.9751 20.9624 18.9751C28.0026 18.9751 34.377 16.129 38.9956 11.5188L30.0081 2.53125L14.3965 18.1179Z" fill="#1FA2FD"/>
<path d="M24.5991 25.9153C22.502 25.3577 20.3051 25.0581 18.0332 25.0581C10.993 25.0581 4.61856 27.9042 -2.09808e-05 32.5144L8.98749 41.502L24.5991 25.9153Z" fill="#17BF7A"/>
<path d="M25.1817 37.0082C25.1817 38.7475 25.8724 40.3203 26.9958 41.4687C28.1525 42.6504 29.767 43.3827 31.5478 43.391C35.0679 43.391 37.9223 40.545 37.9223 37.0249C37.9223 35.2606 37.2066 33.6712 36.0499 32.5145C34.9015 31.3661 33.3037 30.6504 31.5478 30.6504C28.0277 30.6504 25.1733 33.4964 25.1733 37.0165" fill="#059E8C"/>
<path d="M13.8139 6.99166C13.8139 5.25241 13.1232 3.6796 11.9997 2.53119C10.843 1.3495 9.23689 0.617188 7.44771 0.617188C3.92761 0.617188 1.07324 3.46323 1.07324 6.98334C1.07324 8.74755 1.78891 10.3453 2.94564 11.4937C4.09404 12.6421 5.69182 13.3578 7.44771 13.3578C10.9678 13.3578 13.8222 10.5118 13.8222 6.99166" fill="#357FE5"/>
<path d="M0.00830078 32.4812L9.01245 41.502C11.3176 39.1969 14.5048 37.7739 18.0249 37.7739C21.5201 37.7739 24.6907 39.1886 26.9875 41.4687C25.864 40.3203 25.165 38.7475 25.1733 37.0083C25.1733 33.4882 28.0277 30.6338 31.5478 30.6421C33.3037 30.6421 34.8931 31.3578 36.0499 32.5062C32.9292 29.3772 28.993 27.0554 24.5908 25.8821L8.99581 41.4687L0.00830078 32.4812Z" fill="#02E688"/>
</g>
<g clip-path="url(#clip1_1078_9781)">
<path d="M65.95 29.8892V33.5924H48.9902V32.4107L59.4424 17.3233H49.9223V13.6201H65.8668V14.8434L55.373 29.8892H65.9417H65.95Z" fill="#1D074A"/>
<path d="M86.1886 25.0125H71.3093C71.8752 28.3079 74.3967 30.2552 77.8169 30.2552C80.1387 30.2552 81.9612 29.3565 83.6338 27.9002L85.6644 30.8294C83.5506 32.8183 80.8627 34.0416 77.6921 34.0416C71.509 34.0416 66.957 29.5312 66.957 23.6311C66.957 17.731 71.4674 13.179 77.2843 13.179C82.6103 13.179 86.5132 17.0819 86.5132 22.3246C86.5132 23.423 86.3135 24.4799 86.1886 25.0125ZM71.3842 21.6755H82.2441C82.1609 18.5465 79.8474 16.7989 77.1179 16.7989C74.3884 16.7989 72.0333 18.7129 71.3842 21.6755Z" fill="#1D074A"/>
<path d="M107.617 21.1096V33.5922H103.348V21.6755C103.348 18.9542 101.642 17.0402 98.9959 17.0402C96.3496 17.0402 94.4439 18.9542 94.4439 21.6755V33.5922H90.1748V13.6283H94.1609V15.5839C95.5839 14.0777 97.6145 13.1873 100.136 13.1873C104.854 13.1873 107.617 16.4411 107.617 21.1179V21.1096Z" fill="#1D074A"/>
<path d="M133.023 23.5895C133.023 29.5645 128.913 34.0416 123.22 34.0416C120.499 34.0416 118.094 32.9848 116.555 31.154V40.9154H112.286V13.6283H116.272V16.4328C117.736 14.3606 120.3 13.179 123.229 13.179C128.921 13.179 133.032 17.6477 133.032 23.5895H133.023ZM128.63 23.6311C128.63 19.7698 125.983 17.0819 122.53 17.0819C119.559 17.0819 116.513 19.0375 116.513 23.5895C116.513 28.1415 119.526 30.1387 122.53 30.1387C125.942 30.1387 128.63 27.4924 128.63 23.6311Z" fill="#1D074A"/>
<path d="M135.87 6.18052C135.87 4.59106 137.168 3.33447 138.799 3.33447C140.43 3.33447 141.687 4.59106 141.687 6.18052C141.687 7.76997 140.388 8.98495 138.799 8.98495C137.209 8.98495 135.87 7.76165 135.87 6.18052ZM136.644 13.6202H140.913V33.5841H136.644V13.6285V13.6202Z" fill="#1D074A"/>
<path d="M145.706 3.09302H149.975V33.5923H145.706V3.09302Z" fill="#1D074A"/>
<path d="M153.578 23.5895C153.578 17.731 158.213 13.179 164.113 13.179C170.014 13.179 174.724 17.7726 174.724 23.5895C174.724 29.4064 170.047 34.0416 164.113 34.0416C158.18 34.0416 153.578 29.4064 153.578 23.5895ZM170.33 23.6311C170.33 19.8863 167.65 17.0819 164.147 17.0819C160.643 17.0819 157.922 19.8863 157.922 23.6311C157.922 27.3759 160.568 30.0971 164.105 30.0971C167.642 30.0971 170.33 27.2927 170.33 23.6311Z" fill="#1D074A"/>
<path d="M189.745 29.9724V33.5924C188.646 33.8337 187.548 34.0418 186.208 34.0418C181.772 34.0418 178.851 31.928 178.851 27.0848V17.3233H175.598V13.6202H178.851V8.37744H183.162V13.6202H189.096V17.3233H183.162V26.7186C183.162 29.3649 184.627 30.1721 187.107 30.1721C187.839 30.1721 188.696 30.0889 189.753 29.9724H189.745Z" fill="#1D074A"/>
</g>
<defs>
<clipPath id="clip0_1078_9781">
<rect width="39.0041" height="42.7656" fill="white" transform="translate(0 0.617188)"/>
</clipPath>
<clipPath id="clip1_1078_9781">
<rect width="140.754" height="37.8141" fill="white" transform="translate(48.9902 3.09302)"/>
</clipPath>
</defs>
</svg>
